<?xml version="1.0" encoding="UTF-8" standalone="no"?>
<!-- Created with Inkscape (http://www.inkscape.org/) -->

<svg
   width="3300mm"
   height="210mm"
   viewBox="0 0 12472.441 793.7008"
   version="1.1"
   id="svg1"
   inkscape:version="1.4 (e7c3feb100, 2024-10-09)"
   sodipodi:docname="all-layers-flattened-and-offset.svg"
   xmlns:inkscape="http://www.inkscape.org/namespaces/inkscape"
   xmlns:sodipodi="http://sodipodi.sourceforge.net/DTD/sodipodi-0.dtd"
   xmlns="http://www.w3.org/2000/svg"
   xmlns:svg="http://www.w3.org/2000/svg">
  <sodipodi:namedview
     id="namedview1"
     pagecolor="#ffffff"
     bordercolor="#cccccc"
     borderopacity="1"
     inkscape:showpageshadow="0"
     inkscape:pageopacity="1"
     inkscape:pagecheckerboard="0"
     inkscape:deskcolor="#d1d1d1"
     inkscape:document-units="px"
     inkscape:zoom="0.16220651"
     inkscape:cx="5671.7824"
     inkscape:cy="1757.0195"
     inkscape:window-width="2752"
     inkscape:window-height="1086"
     inkscape:window-x="0"
     inkscape:window-y="0"
     inkscape:window-maximized="1"
     inkscape:current-layer="layer3"
     showgrid="false" />
  <defs
     id="defs1" />
  <g
     inkscape:groupmode="layer"
     id="layer3"
     inkscape:label="Layer 01"
     style="display:inline;fill:none">
    <path
       style="display:inline;fill:none;fill-opacity:1;stroke:#000000;stroke-width:0.756;stroke-linecap:round;stroke-dasharray:none"
       d="m 825.2988,391.81821 a 7.1810549,7.1810543 0 0 1 7.17969,7.18164 v 38.89844 a 18.519637,18.519636 0 0 1 11.33984,17.03711 18.519637,18.519636 0 0 1 -18.51953,18.51953 18.519637,18.519636 0 0 1 -18.51953,-18.51953 18.519637,18.519636 0 0 1 11.33789,-17.03711 v -38.89844 a 7.1810549,7.1810543 0 0 1 7.18164,-7.18164 z"
       id="path2" />
    <path
       style="display:inline;fill:none;fill-opacity:1;stroke:#000000;stroke-width:0.756;stroke-linecap:round;stroke-dasharray:none"
       d="m 319.2988,391.81821 a 7.1810549,7.1810543 0 0 1 7.17969,7.18164 v 38.89844 a 18.519637,18.519636 0 0 1 11.33984,17.03711 18.519637,18.519636 0 0 1 -18.51953,18.51953 18.519637,18.519636 0 0 1 -18.51953,-18.51953 18.519637,18.519636 0 0 1 11.33789,-17.03711 v -38.89844 a 7.1810549,7.1810543 0 0 1 7.18164,-7.18164 z"
       id="path1" />
    <path
       id="rect2-9"
       style="display:inline;fill:none;fill-opacity:1;stroke:#000000;stroke-width:0.756;stroke-linecap:round;stroke-dasharray:none"
       inkscape:label="layer 1"
       d="m 572.2988,41.691269 c -197.048,1e-4 -356.787,159.739101 -356.7871,356.787101 0.1113,178.6159 132.2867,329.6265 309.3144,353.3925 v -51.3789 h -11.3398 v -13.3047 h 116.4101 v 13.3047 h -11.3398 v 51.4649 c 177.5423,-23.2146 310.38,-174.425 310.5293,-353.4785 -2e-4,-197.048 -159.7391,-356.787001 -356.7871,-356.787101 z m -253,350.126901 c 3.9657,8e-4 7.18,3.216 7.1797,7.1816 v 38.8985 c 6.8596,2.885 11.3261,9.5956 11.3398,17.0371 0,10.228 -8.2915,18.5195 -18.5195,18.5195 -10.228,0 -18.5195,-8.2915 -18.5195,-18.5195 0.013,-7.4411 4.479,-14.1515 11.3379,-17.0371 v -38.8985 c -4e-4,-3.9664 3.2152,-7.1819 7.1816,-7.1816 z m 506,0 c 3.9657,8e-4 7.18,3.216 7.1797,7.1816 v 38.8985 c 6.8596,2.885 11.3261,9.5956 11.3398,17.0371 0,10.228 -8.2915,18.5195 -18.5195,18.5195 -10.228,0 -18.5195,-8.2915 -18.5195,-18.5195 0.013,-7.4411 4.479,-14.1515 11.3379,-17.0371 v -38.8985 c -4e-4,-3.9664 3.2152,-7.1819 7.1816,-7.1816 z"
       sodipodi:nodetypes="cccccccccccccccccccccccccscccc" />
  </g>
  <g
     inkscape:groupmode="layer"
     id="layer4"
     inkscape:label="Layer 02"
     style="display:inline;fill:none"
     transform="translate(944.88327)">
    <path
       style="display:inline;fill:none;fill-opacity:1;stroke:#000000;stroke-width:0.755906;stroke-linecap:round"
       d="m 797.93747,385.78996 h 55.9375 v 93.73243 h -55.9375 z"
       id="path4" />
    <path
       style="display:inline;fill:none;fill-opacity:1;stroke:#000000;stroke-width:0.755906;stroke-linecap:round"
       d="m 291.93747,385.78996 h 55.9375 v 93.73243 h -55.9375 z"
       id="path3" />
    <path
       style="display:inline;fill:none;fill-opacity:1;stroke:#000000;stroke-width:0.755906;stroke-linecap:round"
       d="M 572.29881,36.043875 C 372.12,36.043687 209.84266,198.32014 209.84177,398.49895 c 0.15495,181.94543 135.17358,335.58036 315.5918,359.10547 v -57.0918 h -11.33984 v -13.30469 h 11.33984 V 524.29582 h 93.73046 v 162.91211 h 11.33984 v 13.30469 h -11.33984 v 57.0918 C 799.58226,734.07931 934.60087,580.44438 934.75584,398.49895 934.75495,198.32014 772.47762,36.043687 572.29881,36.043875 Z"
       id="path26" />
  </g>
  <g
     inkscape:groupmode="layer"
     id="layer5"
     inkscape:label="Layer 03"
     style="display:inline;fill:none"
     transform="translate(1889.762)">
    <path
       id="path15"
       style="display:inline;fill:none;stroke:#000000;stroke-width:0.755905;stroke-linecap:round"
       inkscape:label="layer 3"
       d="m 619.16404,687.20912 h 11.33949 v 13.30395 h -11.33949 v 62.76074 C 802.71465,739.71531 940.24612,583.55657 940.42576,398.50037 940.4255,300.86729 901.64066,207.23311 832.60346,138.19629 763.56627,69.159452 669.93189,30.375109 572.29881,30.375364 368.98845,30.374828 204.1724,195.19001 204.17185,398.50037 c 0.17964,185.0562 137.71111,341.21494 321.26172,364.77344 v -62.76074 h -11.33949 v -13.30395 h 11.33949 v 0 -162.91188 h 93.73047 v 162.91188"
       sodipodi:nodetypes="ccccccsccccccccccc" />
    <path
       id="path1-5"
       style="display:inline;fill:none;fill-opacity:1;stroke:#000000;stroke-width:0.755903;stroke-linecap:round;stroke-dasharray:none;stroke-opacity:1"
       inkscape:label="exterior level 5"
       d="m 2462.0657,19.038258 a 379.46458,379.46458 0 0 0 -379.4648,379.464902 379.46458,379.46458 0 0 0 332.5996,376.1094 v -72.4473 h -11.3398 v -13.3047 h 11.3398 v -76.9942 a 218.83465,218.83465 0 0 1 -171.9688,-213.3652 218.83465,218.83465 0 0 1 218.834,-218.834 218.83465,218.83465 0 0 1 218.834,218.834 218.83465,218.83465 0 0 1 -171.9687,213.6582 v 76.7012 h 11.3398 v 13.3047 h -11.3398 v 72.4473 A 379.46458,379.46458 0 0 0 2841.5306,398.50316 379.46458,379.46458 0 0 0 2462.0657,19.038258 Z" />
    <path
       id="path10"
       style="display:inline;fill:none;fill-opacity:1;stroke:#000000;stroke-width:0.755902;stroke-linecap:round;stroke-dasharray:none;stroke-opacity:1"
       inkscape:label="exterior level 4"
       d="M 1517.1832,24.560375 A 373.79527,373.79527 0 0 0 1143.3883,398.3553 373.79527,373.79527 0 0 0 1470.318,768.80063 v -66.7813 h -11.3398 v -13.3047 h 11.3398 v -76.9941 a 218.83466,218.83466 0 0 1 -171.9688,-213.36328 218.83466,218.83466 0 0 1 218.834,-218.83594 218.83466,218.83466 0 0 1 218.834,218.83594 218.83466,218.83466 0 0 1 -171.9687,213.36328 v 76.9941 h 11.3398 v 13.3047 h -11.3398 v 67.0703 A 373.79527,373.79527 0 0 0 1890.9782,398.3553 373.79527,373.79527 0 0 0 1517.1832,24.560375 Z" />
  </g>
  <g
     inkscape:groupmode="layer"
     id="layer6"
     inkscape:label="Layer 04"
     style="display:inline;fill:none"
     transform="translate(2834.6464)">
    <path
       id="path25"
       style="display:inline;fill:none;fill-opacity:1;stroke:#000000;stroke-width:0.755906;stroke-linecap:round"
       inkscape:label="interior level 4"
       d="m 469.19529,264.94511 c -40.69299,31.68822 -64.5541,80.32873 -64.70703,131.9043 0.15233,51.57625 24.0135,100.21761 64.70703,131.90625 h -17.70117 c -37.07103,-33.85178 -58.23768,-81.70473 -58.3457,-131.90625 0.10806,-50.20055 21.27393,-98.05263 58.34374,-131.9043 z m 206.79687,263.81055 c 40.4721,-31.80773 64.10688,-80.4308 64.11719,-131.90625 -0.15293,-51.57557 -24.01404,-100.21608 -64.70703,-131.9043 h 17.70313 c 37.06981,33.85167 58.23569,81.70375 58.34375,131.9043 -0.01,50.14293 -21.03344,97.98679 -57.96289,131.90625 z"
       sodipodi:nodetypes="cccccccccccccc" />
  </g>
  <g
     inkscape:groupmode="layer"
     id="layer7"
     inkscape:label="Layer 05"
     style="display:inline;fill:none"
     transform="translate(3779.5289)">
    <path
       id="rect23"
       style="display:inline;fill:none;fill-opacity:1;stroke:#000000;stroke-width:0.755906;stroke-linecap:round"
       inkscape:label="interior level 5"
       d="m 462.90623,528.75566 c -39.31505,-32.5328 -62.11031,-80.87637 -62.19727,-131.90625 0.0871,-51.02887 22.88152,-99.37156 62.19531,-131.9043 h 18.8711 c -43.54158,29.80679 -69.61942,79.13781 -69.72852,131.9043 0.1089,52.76754 26.18758,102.09951 69.73047,131.90625 z M 681.69334,264.94511 c 39.31379,32.53274 62.10826,80.87543 62.19531,131.9043 -0.009,50.9779 -22.68395,99.31255 -61.88086,131.90625 h -19.1875 c 43.54289,-29.80674 69.62157,-79.13871 69.73047,-131.90625 -0.1091,-52.76649 -26.18694,-102.09751 -69.72852,-131.9043 z"
       sodipodi:nodetypes="cccccccccccccc" />
  </g>
  <g
     inkscape:groupmode="layer"
     id="layer8"
     inkscape:label="Layer 06"
     style="display:inline;fill:none"
     transform="translate(4724.4103)">
    <path
       id="path24"
       style="display:inline;fill:none;fill-opacity:1;stroke:#000000;stroke-width:0.755906;stroke-linecap:round"
       inkscape:label="interior level 6"
       d="m 475.48435,528.75566 c -42.1016,-30.78246 -67.05543,-79.75188 -67.21679,-131.90625 0.16198,-52.15368 25.11574,-101.12224 67.21679,-131.9043 h 20.58203 c -47.18496,27.18758 -76.319,77.4473 -76.46093,131.9043 0.14205,54.4585 29.27778,104.71931 76.46484,131.90625 z M 669.11326,264.94511 c 42.10105,30.78205 67.05482,79.75061 67.2168,131.9043 -0.002,52.03299 -24.69088,100.97911 -66.53516,131.90625 h -20.67383 c 46.95859,-27.33733 75.85184,-77.56991 75.87109,-131.90625 -0.14193,-54.457 -29.27597,-104.71672 -76.46093,-131.9043 z"
       sodipodi:nodetypes="cccccccccccccc" />
    <path
       id="path18"
       style="display:inline;fill:none;fill-opacity:1;stroke:#000000;stroke-width:0.755903;stroke-linecap:round;stroke-dasharray:none;stroke-opacity:1"
       d="M 572.29881,9.8259759 A 387.02364,387.02364 0 0 0 185.27537,396.84941 387.02364,387.02364 0 0 0 572.29881,783.8748 387.02364,387.02364 0 0 0 959.32224,396.85136 387.02364,387.02364 0 0 0 572.29881,9.8259759 Z m 0,168.1894441 A 218.83465,218.83465 0 0 1 791.13279,396.84941 218.83465,218.83465 0 0 1 572.29881,615.68535 218.83465,218.83465 0 0 1 353.46482,396.84941 218.83465,218.83465 0 0 1 572.29881,178.01542 Z"
       inkscape:label="exterior level 6" />
  </g>
  <g
     inkscape:groupmode="layer"
     id="layer9"
     inkscape:label="Layer 07"
     style="display:inline;fill:none"
     transform="translate(5669.2916)">
    <path
       id="path23"
       style="display:inline;fill:none;fill-opacity:1;stroke:#000000;stroke-width:0.755906;stroke-linecap:round"
       inkscape:label="interior level 7"
       d="m 511.80076,264.94511 c -51.56734,23.64754 -84.62903,75.17338 -84.63672,131.9043 0.007,56.73162 33.06873,108.25842 84.63672,131.90625 H 488.2031 c -45.06907,-28.72316 -72.36101,-78.46244 -72.37695,-131.90625 0.0166,-53.44312 27.30847,-103.18151 72.37695,-131.9043 z m 144.59375,0 c 45.06848,28.72279 72.36034,78.46118 72.37695,131.9043 -0.0189,53.44647 -27.31633,103.18633 -72.39062,131.90625 h -23.65625 c 51.5962,-23.62657 84.6891,-75.15784 84.70898,-131.90625 -0.008,-56.73092 -33.06938,-108.25676 -84.63672,-131.9043 z"
       sodipodi:nodetypes="cccccccccccccc" />
    <path
       id="path20"
       style="display:inline;fill:none;fill-opacity:1;stroke:#000000;stroke-width:0.755903;stroke-linecap:round;stroke-dasharray:none;stroke-opacity:1"
       d="M 572.29881,15.495897 A 381.35435,381.35435 0 0 0 190.94529,396.85136 381.35435,381.35435 0 0 0 572.29881,778.20488 381.35435,381.35435 0 0 0 953.65232,396.85136 381.35435,381.35435 0 0 0 572.29881,15.495897 Z m 0,162.519523 A 218.83465,218.83465 0 0 1 791.13279,396.84941 218.83465,218.83465 0 0 1 572.29881,615.68535 218.83465,218.83465 0 0 1 353.46482,396.84941 218.83465,218.83465 0 0 1 572.29881,178.01542 Z"
       inkscape:label="exterior level 7" />
  </g>
  <g
     inkscape:groupmode="layer"
     id="layer10"
     inkscape:label="Layer 08"
     style="display:inline;fill:none"
     transform="translate(6614.1748)">
    <path
       id="path21"
       style="fill:none;fill-opacity:1;stroke:#000000;stroke-width:0.755906;stroke-linecap:round;stroke-opacity:1"
       d="m 533.27732,264.94511 c -58.44051,17.28616 -98.54373,70.96085 -98.55273,131.9043 0.008,60.94418 40.11153,114.61989 98.55273,131.90625 h -29.34375 c -49.35129,-25.50281 -80.40439,-76.35518 -80.54883,-131.90625 0.14554,-55.5508 31.19936,-106.40235 80.55078,-131.9043 z m 77.97266,263.81055 c 58.46906,-17.26072 98.6057,-70.94263 98.62304,-131.90625 -0.009,-60.94345 -40.11222,-114.61814 -98.55273,-131.9043 h 29.3418 c 49.35142,25.50195 80.40524,76.3535 80.55078,131.9043 -0.0109,55.40116 -30.7765,106.21639 -79.86133,131.90625 z"
       sodipodi:nodetypes="cccccccccccccc"
       inkscape:label="interior level 8" />
    <path
       id="path27"
       style="display:inline;fill:none;fill-opacity:1;stroke:#000000;stroke-width:0.755903;stroke-linecap:round;stroke-dasharray:none;stroke-opacity:1"
       d="M 572.29881,21.165818 A 375.68506,375.68506 0 0 0 196.61326,396.84941 375.68506,375.68506 0 0 0 572.29881,772.53496 375.68506,375.68506 0 0 0 947.98435,396.85136 375.68506,375.68506 0 0 0 572.29881,21.165818 Z m 0,75.589843 A 300.0945,300.0945 0 0 1 872.39256,396.85136 300.0945,300.0945 0 0 1 572.29881,696.94511 300.0945,300.0945 0 0 1 272.20506,396.84941 300.0945,300.0945 0 0 1 572.29881,96.755661 Z"
       inkscape:label="exterior level 8" />
  </g>
  <g
     inkscape:groupmode="layer"
     id="layer11"
     inkscape:label="Layer 09"
     style="display:inline;fill:none"
     transform="translate(7559.056)">
    <path
       id="path9"
       style="display:inline;fill:none;fill-opacity:1;stroke:#000000;stroke-width:0.755903;stroke-linecap:round;stroke-dasharray:none;stroke-opacity:1"
       d="M 702.31456,396.85039 A 130.01575,130.01575 0 0 1 572.2988,526.86613 130.01575,130.01575 0 0 1 442.28304,396.85039 130.01575,130.01575 0 0 1 572.2988,266.83464 130.01575,130.01575 0 0 1 702.31456,396.85039 Z m 11.33859,0 A 141.35433,141.35433 0 0 1 572.29881,538.20472 141.35433,141.35433 0 0 1 430.94446,396.85039 141.35433,141.35433 0 0 1 572.29881,255.49605 141.35433,141.35433 0 0 1 713.65315,396.85039 Z"
       inkscape:label="interior level 9" />
    <path
       id="path29"
       style="display:inline;fill:none;fill-opacity:1;stroke:#000000;stroke-width:0.755903;stroke-linecap:round;stroke-dasharray:none;stroke-opacity:1"
       inkscape:label="exterior level 9"
       d="M 572.29881,26.834767 C 367.94535,26.834941 202.28336,192.49693 202.28318,396.85039 202.2823,601.2046 367.9446,766.86585 572.29881,766.86601 776.65302,766.86583 942.31531,601.2046 942.31443,396.85039 942.31424,192.49693 776.65227,26.834947 572.29881,26.834767 Z m 0,45.353516 C 751.60389,72.188441 896.96076,217.54531 896.96092,396.85039 896.96169,576.15614 751.60456,721.51233 572.29881,721.5125 392.99306,721.51236 247.63593,576.15614 247.6367,396.85039 247.63686,217.54531 392.99371,72.188436 572.29881,72.188283 Z" />
  </g>
  <g
     inkscape:groupmode="layer"
     id="layer12"
     inkscape:label="Layer 10"
     style="display:inline;fill:none"
     transform="translate(8503.9373)">
    <path
       id="path7"
       style="display:inline;fill:none;fill-opacity:1;stroke:#000000;stroke-width:0.755903;stroke-linecap:round;stroke-dasharray:none;stroke-opacity:1"
       d="M 694.7555,396.85038 A 122.45669,122.45669 0 0 1 572.2988,519.30708 122.45669,122.45669 0 0 1 449.84211,396.85038 122.45669,122.45669 0 0 1 572.2988,274.39369 122.45669,122.45669 0 0 1 694.7555,396.85038 Z m 11.33858,1e-5 A 133.79527,133.79527 0 0 1 572.2988,530.64566 133.79527,133.79527 0 0 1 438.50353,396.85039 133.79527,133.79527 0 0 1 572.2988,263.05512 133.79527,133.79527 0 0 1 706.09408,396.85039 Z"
       inkscape:label="interior level 10" />
    <path
       id="path32"
       style="display:inline;fill:none;fill-opacity:1;stroke:#000000;stroke-width:0.755904;stroke-linecap:round;stroke-dasharray:none;stroke-opacity:1"
       inkscape:label="exterior level 10"
       d="M 572.29881,32.503708 A 364.34646,364.34646 0 0 0 207.9531,396.84941 364.34646,364.34646 0 0 0 572.29881,761.19707 364.34646,364.34646 0 0 0 936.64451,396.84941 364.34646,364.34646 0 0 0 572.29881,32.503708 Z m 0,15.117188 c 192.87348,10e-6 349.22851,156.355034 349.22851,349.228514 0,192.87348 -156.35503,349.22851 -349.22851,349.22851 -192.87349,0 -349.22852,-156.35502 -349.22852,-349.22851 1e-5,-192.87349 156.35503,-349.228514 349.22852,-349.228514 z" />
  </g>
  <g
     inkscape:groupmode="layer"
     id="layer2"
     inkscape:label="Layer 11"
     style="display:inline;fill:none">
    <path
       id="path5"
       style="display:inline;fill:none;fill-opacity:1;stroke:#000000;stroke-width:0.755903;stroke-linecap:round;stroke-dasharray:none;stroke-opacity:1"
       d="m 10147.355,396.85039 a 126.23622,126.23622 0 0 1 -126.236,126.23622 126.23622,126.23622 0 0 1 -126.2365,-126.23622 126.23622,126.23622 0 0 1 126.2365,-126.23622 126.23622,126.23622 0 0 1 126.236,126.23622 z"
       inkscape:label="level 11" />
  </g>
  <g
     inkscape:groupmode="layer"
     id="layer1"
     inkscape:label="Panel Mount"
     style="display:inline;fill:none">
    <path
       style="fill:none;stroke:#000000;stroke-width:1.88976;stroke-linecap:round;stroke-dasharray:none;stroke-dashoffset:0"
       d="m 137.3125,672.5293 a 3.5527579,3.5527578 0 0 1 3.55273,3.55273 3.5527579,3.5527578 0 0 1 -3.55273,3.55274 3.5527579,3.5527578 0 0 1 -3.55273,-3.55274 3.5527579,3.5527578 0 0 1 3.55273,-3.55273 z"
       id="path11" />
    <path
       style="fill:none;stroke:#000000;stroke-width:1.88976;stroke-linecap:round;stroke-dasharray:none;stroke-dashoffset:0"
       d="m 80.785156,672.5293 a 3.5527579,3.5527578 0 0 1 3.552735,3.55273 3.5527579,3.5527578 0 0 1 -3.552735,3.55274 3.5527579,3.5527578 0 0 1 -3.552734,-3.55274 3.5527579,3.5527578 0 0 1 3.552734,-3.55273 z"
       id="path8" />
    <path
       style="fill:none;stroke:#000000;stroke-width:1.88976;stroke-linecap:round;stroke-dasharray:none;stroke-dashoffset:0"
       d="m 97.609375,670.94141 h 21.693355 c 2.83883,0 5.14063,2.30179 5.14063,5.14062 0,2.83883 -2.3018,5.14063 -5.14063,5.14063 H 97.609375 c -2.83883,0 -5.140625,-2.3018 -5.140625,-5.14063 0,-2.83883 2.301795,-5.14062 5.140625,-5.14062 z"
       id="path6" />
    <path
       style="fill:none;stroke:#000000;stroke-width:1.88976;stroke-linecap:round;stroke-dasharray:none;stroke-dashoffset:0"
       d="m 51.410156,644.36719 v 54.80273 H 166.68555 v -54.80273 z"
       id="path16" />
  </g>
</svg>
