<?xml version="1.0" encoding="UTF-8" standalone="no"?>
<!-- Created with Inkscape (http://www.inkscape.org/) -->

<svg
   width="250mm"
   height="180mm"
   viewBox="0 0 944.88189 680.31499"
   version="1.1"
   id="svg1"
   inkscape:version="1.4 (e7c3feb100, 2024-10-09)"
   sodipodi:docname="circuit-diagram.svg"
   xmlns:inkscape="http://www.inkscape.org/namespaces/inkscape"
   xmlns:sodipodi="http://sodipodi.sourceforge.net/DTD/sodipodi-0.dtd"
   xmlns="http://www.w3.org/2000/svg"
   xmlns:svg="http://www.w3.org/2000/svg">
  <sodipodi:namedview
     id="namedview1"
     pagecolor="#ffffff"
     bordercolor="#cccccc"
     borderopacity="1"
     inkscape:showpageshadow="0"
     inkscape:pageopacity="1"
     inkscape:pagecheckerboard="0"
     inkscape:deskcolor="#d1d1d1"
     inkscape:document-units="mm"
     inkscape:zoom="0.70710678"
     inkscape:cx="730.44131"
     inkscape:cy="483.66104"
     inkscape:window-width="1360"
     inkscape:window-height="1070"
     inkscape:window-x="26"
     inkscape:window-y="23"
     inkscape:window-maximized="0"
     inkscape:current-layer="layer1" />
  <defs
     id="defs1">
    <marker
       style="overflow:visible"
       id="marker348"
       refX="0"
       refY="0"
       orient="auto"
       inkscape:stockid="Dot"
       markerWidth="1"
       markerHeight="1"
       viewBox="0 0 1 1"
       inkscape:isstock="true"
       inkscape:collect="always"
       preserveAspectRatio="xMidYMid">
      <path
         transform="scale(0.5)"
         style="fill:context-stroke;fill-rule:evenodd;stroke:none"
         d="M 5,0 C 5,2.76 2.76,5 0,5 -2.76,5 -5,2.76 -5,0 c 0,-2.76 2.3,-5 5,-5 2.76,0 5,2.24 5,5 z"
         sodipodi:nodetypes="sssss"
         id="path348" />
    </marker>
    <marker
       style="overflow:visible"
       id="Dot"
       refX="0"
       refY="0"
       orient="auto"
       inkscape:stockid="Dot"
       markerWidth="1"
       markerHeight="1"
       viewBox="0 0 1 1"
       inkscape:isstock="true"
       inkscape:collect="always"
       preserveAspectRatio="xMidYMid">
      <path
         transform="scale(0.5)"
         style="fill:context-stroke;fill-rule:evenodd;stroke:none"
         d="M 5,0 C 5,2.76 2.76,5 0,5 -2.76,5 -5,2.76 -5,0 c 0,-2.76 2.3,-5 5,-5 2.76,0 5,2.24 5,5 z"
         sodipodi:nodetypes="sssss"
         id="path347" />
    </marker>
  </defs>
  <g
     inkscape:label="Layer 1"
     inkscape:groupmode="layer"
     id="layer1"
     transform="translate(118.07327,165.31741)">
    <path
       id="path8"
       style="fill:#000000;fill-opacity:1;stroke:#000000;stroke-width:0.755906;stroke-linecap:round"
       d="M 211.52735,-100.93946 A 297.22208,297.22208 0 0 0 -85.695318,196.28321 297.22208,297.22208 0 0 0 211.52735,493.50587 297.22208,297.22208 0 0 0 508.75002,196.28321 297.22208,297.22208 0 0 0 211.52735,-100.93946 Z m -5.20117,24.050781 A 273.22206,273.22206 0 0 1 414.57033,13.462891 273.22206,273.22206 0 0 1 394.34962,399.32618 273.22206,273.22206 0 0 1 8.4843749,379.10548 273.22206,273.22206 0 0 1 28.707033,-6.7597648 273.22206,273.22206 0 0 1 206.32618,-76.888679 Z" />
    <path
       id="rect1"
       style="fill:#000000;fill-opacity:1;stroke-width:3.77953;stroke-linecap:round"
       d="M 238.86163,-40.864567 V 23.387401 H 189.72777 V -40.864567 Z" />
    <path
       id="path1"
       style="fill:#e7e7e7;stroke-width:3.77953;stroke-linecap:round"
       d="m 221.23957,15.827441 v 26.456694 h -1.88976 V 15.827441 Z" />
    <path
       id="path2"
       style="fill:#e7e7e7;stroke-width:3.77953;stroke-linecap:round"
       d="m 215.23958,15.827441 v 26.456694 h -1.88976 V 15.827441 Z" />
    <path
       id="path3"
       style="fill:#e7e7e7;stroke-width:3.77953;stroke-linecap:round"
       d="m 209.23958,15.827441 v 26.456694 h -1.88976 V 15.827441 Z" />
    <path
       id="path4"
       style="fill:#ffffff;fill-opacity:1;stroke-width:3.77953;stroke-linecap:round"
       d="m 232.29469,-29.334565 a 3.7795273,3.7795273 0 0 1 -3.77953,-3.779527 3.7795273,3.7795273 0 0 1 3.77953,-3.779525 3.7795273,3.7795273 0 0 1 3.77953,3.779525 3.7795273,3.7795273 0 0 1 -3.77953,3.779527 z" />
    <path
       id="path5"
       style="fill:#ffffff;fill-opacity:1;stroke-width:3.77953;stroke-linecap:round"
       d="m 196.29469,-29.334565 a 3.7795273,3.7795273 0 0 1 -3.77953,-3.779527 3.7795273,3.7795273 0 0 1 3.77953,-3.779525 3.7795273,3.7795273 0 0 1 3.77953,3.779525 3.7795273,3.7795273 0 0 1 -3.77953,3.779527 z" />
    <g
       id="g7"
       transform="rotate(180,222.66347,155.54321)">
      <path
         id="path6"
         style="fill:#aeaeae;fill-opacity:1;stroke-width:3.77952;stroke-linecap:round"
         d="m 118.63197,10.157383 h 136.063 V 236.92904 h -136.063 z" />
      <path
         id="path7"
         style="fill:#af7319;fill-opacity:1;stroke-width:3.77951;stroke-linecap:round"
         d="m 118.63197,10.157383 h 136.063 v 18.89764 h -136.063 z" />
    </g>
    <path
       id="path9"
       style="fill:none;stroke:#000000;stroke-width:0.755906;stroke-linecap:round"
       d="M 484.74962,196.28345 A 273.22206,273.22206 0 0 1 211.52756,469.50551 273.22206,273.22206 0 0 1 -61.694488,196.28345 273.22206,273.22206 0 0 1 211.52756,-76.938569 273.22206,273.22206 0 0 1 484.74962,196.28345 Z" />
    <path
       id="path10"
       style="fill:none;fill-opacity:1;stroke:#000000;stroke-width:1.88976;stroke-linecap:round;stroke-dasharray:1.88976, 5.66929;stroke-dashoffset:0;stroke-opacity:1"
       d="M 32.377954,64.377959 H 390.67718 V 328.18898 H 32.377954 Z" />
    <g
       id="g19"
       transform="translate(-87.999998,-236)">
      <path
         id="rect11"
         style="fill:#3c4d73;stroke-width:1.88976;stroke-linecap:round"
         d="m 193.95948,343.4867 h 49.60179 c 4.0581,0 7.32509,3.26699 7.32509,7.32509 v 125.19236 c 0,4.05809 -3.26699,7.32508 -7.32509,7.32508 h -49.60179 c -4.0581,0 -7.32509,-3.26699 -7.32509,-7.32508 V 350.81179 c 0,-4.0581 3.26699,-7.32509 7.32509,-7.32509 z" />
      <g
         id="g14"
         transform="translate(-0.923455)">
        <path
           id="path11"
           style="fill:#aeaeae;fill-opacity:1;stroke-width:3.77951;stroke-linecap:round"
           d="m 199.01454,343.6586 h 11.33858 v 18.89764 h -11.33858 z" />
        <path
           id="path12"
           style="fill:#ffffff;fill-opacity:1;stroke-width:3.77953;stroke-linecap:round"
           d="m 204.68383,356.88694 a 3.7795273,3.7795273 0 0 1 -3.77953,-3.77953 3.7795273,3.7795273 0 0 1 3.77953,-3.77952 3.7795273,3.7795273 0 0 1 3.77953,3.77952 3.7795273,3.7795273 0 0 1 -3.77953,3.77953 z" />
        <path
           id="path13"
           style="fill:#aeaeae;fill-opacity:1;stroke-width:3.77951;stroke-linecap:round"
           d="m 229.01454,343.6586 h 11.33858 v 18.89764 h -11.33858 z" />
        <path
           id="path14"
           style="fill:#ffffff;fill-opacity:1;stroke-width:3.77953;stroke-linecap:round"
           d="m 234.68383,356.88694 a 3.7795273,3.7795273 0 0 1 -3.77953,-3.77953 3.7795273,3.7795273 0 0 1 3.77953,-3.77952 3.7795273,3.7795273 0 0 1 3.77953,3.77952 3.7795273,3.7795273 0 0 1 -3.77953,3.77953 z" />
      </g>
      <g
         id="g18"
         transform="translate(-0.923455,120.77299)">
        <path
           id="path15"
           style="fill:#aeaeae;fill-opacity:1;stroke-width:3.77951;stroke-linecap:round"
           d="m 199.01454,343.6586 h 11.33858 v 18.89764 h -11.33858 z" />
        <path
           id="path16"
           style="fill:#ffffff;fill-opacity:1;stroke-width:3.77953;stroke-linecap:round"
           d="m 204.68383,356.88694 a 3.7795273,3.7795273 0 0 1 -3.77953,-3.77953 3.7795273,3.7795273 0 0 1 3.77953,-3.77952 3.7795273,3.7795273 0 0 1 3.77953,3.77952 3.7795273,3.7795273 0 0 1 -3.77953,3.77953 z" />
        <path
           id="path17"
           style="fill:#aeaeae;fill-opacity:1;stroke-width:3.77951;stroke-linecap:round"
           d="m 229.01454,343.6586 h 11.33858 v 18.89764 h -11.33858 z" />
        <path
           id="path18"
           style="fill:#ffffff;fill-opacity:1;stroke-width:3.77953;stroke-linecap:round"
           d="m 234.68383,356.88694 a 3.7795273,3.7795273 0 0 1 -3.77953,-3.77953 3.7795273,3.7795273 0 0 1 3.77953,-3.77952 3.7795273,3.7795273 0 0 1 3.77953,3.77952 3.7795273,3.7795273 0 0 1 -3.77953,3.77953 z" />
      </g>
    </g>
    <g
       id="g169"
       transform="translate(32.000002,64.000003)">
      <path
         id="path20"
         style="fill:#ffffff;fill-opacity:1;stroke:#000000;stroke-width:0.755906;stroke-linecap:round;stroke-dasharray:none;stroke-dashoffset:0;stroke-opacity:1"
         d="m 172.91339,-160.93859 h 13.22835 v 13.22835 h -13.22835 z m 11.90551,6.61418 a 5.2913386,5.2913386 0 0 1 -5.29133,5.29134 5.2913386,5.2913386 0 0 1 -5.29134,-5.29134 5.2913386,5.2913386 0 0 1 5.29134,-5.29134 5.2913386,5.2913386 0 0 1 5.29133,5.29134 z" />
      <path
         id="path21"
         style="fill:#ffffff;fill-opacity:1;stroke:#000000;stroke-width:0.755906;stroke-linecap:round;stroke-dasharray:none;stroke-dashoffset:0;stroke-opacity:1"
         d="m 172.91339,410.27718 h 13.22835 v 13.22835 h -13.22835 z m 11.90551,6.61418 a 5.2913386,5.2913386 0 0 1 -5.29133,5.29134 5.2913386,5.2913386 0 0 1 -5.29134,-5.29134 5.2913386,5.2913386 0 0 1 5.29134,-5.29134 5.2913386,5.2913386 0 0 1 5.29133,5.29134 z" />
      <path
         id="path141"
         style="fill:#ffffff;fill-opacity:1;stroke:#000000;stroke-width:0.755906;stroke-linecap:round;stroke-dasharray:none;stroke-dashoffset:0;stroke-opacity:1"
         d="m 233.81431,-155.928 12.93928,2.75033 -2.75033,12.93928 -12.93928,-2.75033 z m 10.27018,8.94494 a 5.2913386,5.2913386 0 0 1 -6.27583,4.07558 5.2913386,5.2913386 0 0 1 -4.07558,-6.27584 5.2913386,5.2913386 0 0 1 6.27584,-4.07558 5.2913386,5.2913386 0 0 1 4.07557,6.27584 z" />
      <path
         id="path142"
         style="fill:#ffffff;fill-opacity:1;stroke:#000000;stroke-width:0.755906;stroke-linecap:round;stroke-dasharray:none;stroke-dashoffset:0;stroke-opacity:1"
         d="m 115.05187,402.80533 12.93928,2.75033 -2.75033,12.93928 -12.93928,-2.75033 z m 10.27018,8.94494 a 5.2913386,5.2913386 0 0 1 -6.27583,4.07559 5.2913386,5.2913386 0 0 1 -4.07558,-6.27585 5.2913386,5.2913386 0 0 1 6.27584,-4.07558 5.2913386,5.2913386 0 0 1 4.07557,6.27584 z" />
      <path
         id="path143"
         style="fill:#ffffff;fill-opacity:1;stroke:#000000;stroke-width:0.755906;stroke-linecap:round;stroke-dasharray:none;stroke-dashoffset:0;stroke-opacity:1"
         d="m 292.34263,-138.36489 12.0847,5.38045 -5.38045,12.0847 -12.0847,-5.38045 z m 8.186,10.88476 a 5.2913386,5.2913386 0 0 1 -6.98605,2.6817 5.2913386,5.2913386 0 0 1 -2.6817,-6.98606 5.2913386,5.2913386 0 0 1 6.98606,-2.6817 5.2913386,5.2913386 0 0 1 2.68169,6.98606 z" />
      <path
         id="path144"
         style="fill:#ffffff;fill-opacity:1;stroke:#000000;stroke-width:0.755906;stroke-linecap:round;stroke-dasharray:none;stroke-dashoffset:0;stroke-opacity:1"
         d="m 60.00825,383.46668 12.084699,5.38046 -5.380455,12.08469 -12.084699,-5.38045 z m 8.185995,10.88476 a 5.2913386,5.2913386 0 0 1 -6.986052,2.6817 5.2913386,5.2913386 0 0 1 -2.681698,-6.98606 5.2913386,5.2913386 0 0 1 6.986062,-2.68169 5.2913386,5.2913386 0 0 1 2.681688,6.98605 z" />
      <path
         id="path145"
         style="fill:#ffffff;fill-opacity:1;stroke:#000000;stroke-width:0.755906;stroke-linecap:round;stroke-dasharray:none;stroke-dashoffset:0;stroke-opacity:1"
         d="m 345.9404,-109.01685 10.70196,7.77542 -7.77543,10.701965 -10.70196,-7.775429 z m 5.74404,12.348863 a 5.2913386,5.2913386 0 0 1 -7.39094,1.170618 5.2913386,5.2913386 0 0 1 -1.17062,-7.390951 5.2913386,5.2913386 0 0 1 7.39096,-1.17062 5.2913386,5.2913386 0 0 1 1.1706,7.390953 z" />
      <path
         id="path146"
         style="fill:#ffffff;fill-opacity:1;stroke:#000000;stroke-width:0.755906;stroke-linecap:round;stroke-dasharray:none;stroke-dashoffset:0;stroke-opacity:1"
         d="m 10.188196,353.10641 10.70196,7.77543 -7.775429,10.70196 -10.7019602,-7.77543 z m 5.744042,12.34887 a 5.2913386,5.2913386 0 0 1 -7.3909472,1.17062 5.2913386,5.2913386 0 0 1 -1.1706124,-7.39096 5.2913386,5.2913386 0 0 1 7.3909556,-1.17061 5.2913386,5.2913386 0 0 1 1.170604,7.39095 z" />
      <path
         id="path147"
         style="fill:#ffffff;fill-opacity:1;stroke:#000000;stroke-width:0.755906;stroke-linecap:round;stroke-dasharray:none;stroke-dashoffset:0;stroke-opacity:1"
         d="m 392.26513,-69.16654 8.85149,9.830579 -9.83058,8.851494 -8.85149,-9.83058 z m 3.05105,13.273268 a 5.2913386,5.2913386 0 0 1 -7.47283,-0.391627 5.2913386,5.2913386 0 0 1 0.39164,-7.472829 5.2913386,5.2913386 0 0 1 7.47283,0.391634 5.2913386,5.2913386 0 0 1 -0.39164,7.472822 z" />
      <path
         id="path148"
         style="fill:#ffffff;fill-opacity:1;stroke:#000000;stroke-width:0.755906;stroke-linecap:round;stroke-dasharray:none;stroke-dashoffset:0;stroke-opacity:1"
         d="m -32.230916,313.05141 8.851494,9.83058 -9.83058,8.8515 -8.851493,-9.83058 z m 3.051048,13.27327 a 5.2913386,5.2913386 0 0 1 -7.472823,-0.39162 5.2913386,5.2913386 0 0 1 0.391635,-7.47283 5.2913386,5.2913386 0 0 1 7.472829,0.39163 5.2913386,5.2913386 0 0 1 -0.391641,7.47282 z" />
      <path
         id="path149"
         style="fill:#ffffff;fill-opacity:1;stroke:#000000;stroke-width:0.755906;stroke-linecap:round;stroke-dasharray:none;stroke-dashoffset:0;stroke-opacity:1"
         d="m 429.2922,-20.555599 6.61418,11.4560869 -11.45609,6.614175 -6.61417,-11.4560869 z m 0.22471,13.6175639 a 5.2913386,5.2913386 0 0 1 -7.2281,-1.9367562 5.2913386,5.2913386 0 0 1 1.93676,-7.2281047 5.2913386,5.2913386 0 0 1 7.22811,1.936765 5.2913386,5.2913386 0 0 1 -1.93677,7.2280959 z" />
      <path
         id="path150"
         style="fill:#ffffff;fill-opacity:1;stroke:#000000;stroke-width:0.755906;stroke-linecap:round;stroke-dasharray:none;stroke-dashoffset:0;stroke-opacity:1"
         d="m -65.395165,265.05229 6.614175,11.45608 -11.456088,6.61418 -6.614175,-11.45609 z m 0.224707,13.61756 a 5.2913386,5.2913386 0 0 1 -7.2281,-1.93676 5.2913386,5.2913386 0 0 1 1.936765,-7.2281 5.2913386,5.2913386 0 0 1 7.228105,1.93676 5.2913386,5.2913386 0 0 1 -1.93677,7.2281 z" />
      <path
         id="path151"
         style="fill:#ffffff;fill-opacity:1;stroke:#000000;stroke-width:0.755906;stroke-linecap:round;stroke-dasharray:none;stroke-dashoffset:0;stroke-opacity:1"
         d="m 455.40336,34.691438 4.08779,12.580908 -12.58091,4.087785 -4.08779,-12.580908 z m -2.61145,13.366707 a 5.2913386,5.2913386 0 0 1 -6.66747,-3.39724 5.2913386,5.2913386 0 0 1 3.39724,-6.667478 5.2913386,5.2913386 0 0 1 6.66748,3.39725 5.2913386,5.2913386 0 0 1 -3.39725,6.667468 z" />
      <path
         id="path152"
         style="fill:#ffffff;fill-opacity:1;stroke:#000000;stroke-width:0.755906;stroke-linecap:round;stroke-dasharray:none;stroke-dashoffset:0;stroke-opacity:1"
         d="m -87.855117,211.20682 4.087785,12.58091 -12.580908,4.08778 -4.08779,-12.58091 z m -2.611454,13.36671 a 5.2913386,5.2913386 0 0 1 -6.667474,-3.39724 5.2913386,5.2913386 0 0 1 3.397249,-6.66748 5.2913386,5.2913386 0 0 1 6.667478,3.39725 5.2913386,5.2913386 0 0 1 -3.397253,6.66747 z" />
      <path
         id="path153"
         style="fill:#ffffff;fill-opacity:1;stroke:#000000;stroke-width:0.755906;stroke-linecap:round;stroke-dasharray:none;stroke-dashoffset:0;stroke-opacity:1"
         d="m 469.45743,94.16001 1.38274,13.15588 -13.15589,1.38274 -1.38274,-13.155881 z m -5.33348,12.53166 a 5.2913386,5.2913386 0 0 1 -5.81545,-4.70925 5.2913386,5.2913386 0 0 1 4.70926,-5.815446 5.2913386,5.2913386 0 0 1 5.81544,4.709256 5.2913386,5.2913386 0 0 1 -4.70925,5.81544 z" />
      <path
         id="path154"
         style="fill:#ffffff;fill-opacity:1;stroke:#000000;stroke-width:0.755906;stroke-linecap:round;stroke-dasharray:none;stroke-dashoffset:0;stroke-opacity:1"
         d="m -98.629162,153.86832 1.382739,13.15588 -13.155887,1.38274 -1.38274,-13.15588 z m -5.333478,12.53166 a 5.2913386,5.2913386 0 0 1 -5.81545,-4.70925 5.2913386,5.2913386 0 0 1 4.70926,-5.81545 5.2913386,5.2913386 0 0 1 5.815444,4.70926 5.2913386,5.2913386 0 0 1 -4.709254,5.81544 z" />
      <path
         id="path156"
         style="fill:#ffffff;fill-opacity:1;stroke:#000000;stroke-width:0.755906;stroke-linecap:round;stroke-dasharray:none;stroke-dashoffset:0;stroke-opacity:1"
         d="m 470.84017,155.25106 -1.38274,13.15588 -13.15589,-1.38274 1.38274,-13.15588 z m -7.82242,11.14892 a 5.2913386,5.2913386 0 0 1 -4.70925,-5.81544 5.2913386,5.2913386 0 0 1 5.81544,-4.70926 5.2913386,5.2913386 0 0 1 4.70926,5.81545 5.2913386,5.2913386 0 0 1 -5.81545,4.70925 z" />
      <path
         id="path157"
         style="fill:#ffffff;fill-opacity:1;stroke:#000000;stroke-width:0.755906;stroke-linecap:round;stroke-dasharray:none;stroke-dashoffset:0;stroke-opacity:1"
         d="m -97.246424,95.542749 -1.382739,13.155881 -13.155887,-1.38274 1.38274,-13.15588 z m -7.822416,11.148921 a 5.2913386,5.2913386 0 0 1 -4.70925,-5.81544 5.2913386,5.2913386 0 0 1 5.81544,-4.709257 5.2913386,5.2913386 0 0 1 4.709262,5.815447 5.2913386,5.2913386 0 0 1 -5.815452,4.70925 z" />
      <g
         id="g164"
         style="fill:#ffffff;fill-opacity:1">
        <path
           id="path158"
           style="fill:#ffffff;fill-opacity:1;stroke:#000000;stroke-width:0.755906;stroke-linecap:round;stroke-dasharray:none;stroke-dashoffset:0;stroke-opacity:1"
           d="m 459.49115,215.2946 -4.08779,12.58091 -12.58091,-4.08778 4.08779,-12.58091 z m -9.96947,9.27892 a 5.2913386,5.2913386 0 0 1 -3.39725,-6.66747 5.2913386,5.2913386 0 0 1 6.66748,-3.39725 5.2913386,5.2913386 0 0 1 3.39725,6.66748 5.2913386,5.2913386 0 0 1 -6.66748,3.39724 z" />
        <path
           id="path159"
           style="fill:#ffffff;fill-opacity:1;stroke:#000000;stroke-width:0.755906;stroke-linecap:round;stroke-dasharray:none;stroke-dashoffset:0;stroke-opacity:1"
           d="m -83.767335,38.779223 -4.087785,12.580908 -12.58091,-4.087785 4.087787,-12.580908 z m -9.969464,9.278919 a 5.2913386,5.2913386 0 0 1 -3.397252,-6.667468 5.2913386,5.2913386 0 0 1 6.667477,-3.39725 5.2913386,5.2913386 0 0 1 3.397249,6.667478 5.2913386,5.2913386 0 0 1 -6.667474,3.39724 z" />
        <path
           id="path160"
           style="fill:#ffffff;fill-opacity:1;stroke:#000000;stroke-width:0.755906;stroke-linecap:round;stroke-dasharray:none;stroke-dashoffset:0;stroke-opacity:1"
           d="m 435.90637,271.66646 -6.61417,11.45609 -11.45609,-6.61418 6.61418,-11.45608 z m -11.6808,7.00338 a 5.2913386,5.2913386 0 0 1 -1.93677,-7.22809 5.2913386,5.2913386 0 0 1 7.2281,-1.93677 5.2913386,5.2913386 0 0 1 1.93677,7.22811 5.2913386,5.2913386 0 0 1 -7.2281,1.93675 z" />
        <path
           id="path161"
           style="fill:#ffffff;fill-opacity:1;stroke:#000000;stroke-width:0.755906;stroke-linecap:round;stroke-dasharray:none;stroke-dashoffset:0;stroke-opacity:1"
           d="m -58.780995,-13.941424 -6.614175,11.4560869 -11.456088,-6.614175 6.614175,-11.4560869 z m -11.680803,7.0033839 a 5.2913386,5.2913386 0 0 1 -1.93677,-7.2280959 5.2913386,5.2913386 0 0 1 7.228105,-1.936765 5.2913386,5.2913386 0 0 1 1.936765,7.2281047 5.2913386,5.2913386 0 0 1 -7.2281,1.9367562 z" />
        <path
           id="path162"
           style="fill:#ffffff;fill-opacity:1;stroke:#000000;stroke-width:0.755906;stroke-linecap:round;stroke-dasharray:none;stroke-dashoffset:0;stroke-opacity:1"
           d="m 401.11662,321.90291 -8.8515,9.83058 -9.83058,-8.8515 8.8515,-9.83058 z m -12.88164,4.42177 a 5.2913386,5.2913386 0 0 1 -0.39164,-7.47283 5.2913386,5.2913386 0 0 1 7.47283,-0.39163 5.2913386,5.2913386 0 0 1 0.39163,7.47283 5.2913386,5.2913386 0 0 1 -7.47282,0.39163 z" />
        <path
           id="path163"
           style="fill:#ffffff;fill-opacity:1;stroke:#000000;stroke-width:0.755906;stroke-linecap:round;stroke-dasharray:none;stroke-dashoffset:0;stroke-opacity:1"
           d="m -23.379428,-60.315047 -8.851494,9.83058 -9.83058,-8.851494 8.851494,-9.830579 z m -12.881635,4.421768 a 5.2913386,5.2913386 0 0 1 -0.391641,-7.472822 5.2913386,5.2913386 0 0 1 7.472829,-0.391634 5.2913386,5.2913386 0 0 1 0.391635,7.472829 5.2913386,5.2913386 0 0 1 -7.472823,0.391627 z" />
      </g>
      <path
         id="path164"
         style="fill:#ffffff;fill-opacity:1;stroke:#000000;stroke-width:0.755906;stroke-linecap:round;stroke-dasharray:none;stroke-dashoffset:0;stroke-opacity:1"
         d="m 356.64236,363.80837 -10.70196,7.77543 -7.77543,-10.70196 10.70196,-7.77542 z m -13.51948,1.6469 a 5.2913386,5.2913386 0 0 1 1.17061,-7.39095 5.2913386,5.2913386 0 0 1 7.39096,1.17061 5.2913386,5.2913386 0 0 1 -1.17062,7.39096 5.2913386,5.2913386 0 0 1 -7.39095,-1.17062 z" />
      <path
         id="path165"
         style="fill:#ffffff;fill-opacity:1;stroke:#000000;stroke-width:0.755906;stroke-linecap:round;stroke-dasharray:none;stroke-dashoffset:0;stroke-opacity:1"
         d="m 20.890153,-98.314892 -10.701959,7.775428 -7.7754305,-10.701956 10.7019615,-7.77543 z m -13.5194771,1.646899 a 5.2913386,5.2913386 0 0 1 1.1706048,-7.390947 5.2913386,5.2913386 0 0 1 7.3909553,1.17061 5.2913386,5.2913386 0 0 1 -1.170613,7.390955 5.2913386,5.2913386 0 0 1 -7.3909471,-1.170618 z" />
      <path
         id="path166"
         style="fill:#ffffff;fill-opacity:1;stroke:#000000;stroke-width:0.755906;stroke-linecap:round;stroke-dasharray:none;stroke-dashoffset:0;stroke-opacity:1"
         d="m 304.42733,395.55138 -12.0847,5.38046 -5.38045,-12.0847 12.0847,-5.38045 z m -13.56645,-1.19995 a 5.2913386,5.2913386 0 0 1 2.68168,-6.98605 5.2913386,5.2913386 0 0 1 6.98607,2.68169 5.2913386,5.2913386 0 0 1 -2.6817,6.98607 5.2913386,5.2913386 0 0 1 -6.98605,-2.68171 z" />
      <path
         id="path167"
         style="fill:#ffffff;fill-opacity:1;stroke:#000000;stroke-width:0.755906;stroke-linecap:round;stroke-dasharray:none;stroke-dashoffset:0;stroke-opacity:1"
         d="m 72.092946,-126.28019 -12.084699,5.38046 -5.380455,-12.0847 12.084699,-5.38046 z m -13.566454,-1.19995 a 5.2913386,5.2913386 0 0 1 2.681688,-6.98605 5.2913386,5.2913386 0 0 1 6.986062,2.68169 5.2913386,5.2913386 0 0 1 -2.681698,6.98607 5.2913386,5.2913386 0 0 1 -6.986052,-2.68171 z" />
      <path
         id="path168"
         style="fill:#ffffff;fill-opacity:1;stroke:#000000;stroke-width:0.755906;stroke-linecap:round;stroke-dasharray:none;stroke-dashoffset:0;stroke-opacity:1"
         d="m 246.75359,415.74462 -12.93929,2.75032 -2.75032,-12.93928 12.93928,-2.75032 z m -13.02052,-3.99435 a 5.2913386,5.2913386 0 0 1 4.07557,-6.27585 5.2913386,5.2913386 0 0 1 6.27585,4.07559 5.2913386,5.2913386 0 0 1 -4.07559,6.27584 5.2913386,5.2913386 0 0 1 -6.27583,-4.07558 z" />
      <path
         id="path169"
         style="fill:#ffffff;fill-opacity:1;stroke:#000000;stroke-width:0.755906;stroke-linecap:round;stroke-dasharray:none;stroke-dashoffset:0;stroke-opacity:1"
         d="m 127.99115,-142.98872 -12.93928,2.75033 -2.75033,-12.93928 12.93928,-2.75033 z m -13.02051,-3.99435 a 5.2913386,5.2913386 0 0 1 4.07557,-6.27584 5.2913386,5.2913386 0 0 1 6.27584,4.07558 5.2913386,5.2913386 0 0 1 -4.07558,6.27584 5.2913386,5.2913386 0 0 1 -6.27583,-4.07558 z" />
    </g>
    <path
       id="path170"
       style="fill:#ffffff;fill-opacity:1;stroke:#000000;stroke-width:0.755906;stroke-linecap:round;stroke-dasharray:none;stroke-dashoffset:0;stroke-opacity:1"
       d="m 235.49515,-96.02914 13.15588,1.382741 -1.38274,13.15589 -13.15588,-1.38274 z m 11.14892,7.822421 a 5.2913386,5.2913386 0 0 1 -5.81544,4.70925 5.2913386,5.2913386 0 0 1 -4.70926,-5.81544 5.2913386,5.2913386 0 0 1 5.81545,-4.70926 5.2913386,5.2913386 0 0 1 4.70925,5.81545 z" />
    <path
       id="path171"
       style="fill:#ffffff;fill-opacity:1;stroke:#000000;stroke-width:0.755906;stroke-linecap:round;stroke-dasharray:none;stroke-dashoffset:0;stroke-opacity:1"
       d="m 175.78684,472.05745 13.15588,1.38274 -1.38274,13.15589 -13.15588,-1.38274 z m 11.14892,7.82242 a 5.2913386,5.2913386 0 0 1 -5.81544,4.70925 5.2913386,5.2913386 0 0 1 -4.70926,-5.81544 5.2913386,5.2913386 0 0 1 5.81545,-4.70926 5.2913386,5.2913386 0 0 1 4.70925,5.81545 z" />
    <path
       id="path172"
       style="fill:#ffffff;fill-opacity:1;stroke:#000000;stroke-width:0.755906;stroke-linecap:round;stroke-dasharray:none;stroke-dashoffset:0;stroke-opacity:1"
       d="m 295.5387,-84.680109 12.5809,4.08778 -4.08778,12.580911 -12.58091,-4.08779 z m 9.27891,9.969461 a 5.2913386,5.2913386 0 0 1 -6.66746,3.39725 5.2913386,5.2913386 0 0 1 -3.39725,-6.667471 5.2913386,5.2913386 0 0 1 6.66747,-3.39725 5.2913386,5.2913386 0 0 1 3.39724,6.667471 z" />
    <path
       id="path173"
       style="fill:#ffffff;fill-opacity:1;stroke:#000000;stroke-width:0.755906;stroke-linecap:round;stroke-dasharray:none;stroke-dashoffset:0;stroke-opacity:1"
       d="m 119.02331,458.57836 12.58091,4.08779 -4.08778,12.58091 -12.58091,-4.08779 z m 9.27892,9.96946 a 5.2913386,5.2913386 0 0 1 -6.66747,3.39727 5.2913386,5.2913386 0 0 1 -3.39724,-6.66749 5.2913386,5.2913386 0 0 1 6.66747,-3.39725 5.2913386,5.2913386 0 0 1 3.39724,6.66747 z" />
    <path
       id="path174"
       style="fill:#ffffff;fill-opacity:1;stroke:#000000;stroke-width:0.755906;stroke-linecap:round;stroke-dasharray:none;stroke-dashoffset:0;stroke-opacity:1"
       d="m 351.91055,-61.095338 11.45608,6.614171 -6.61417,11.45609 -11.45608,-6.61417 z m 7.00338,11.680801 a 5.2913386,5.2913386 0 0 1 -7.22809,1.93677 5.2913386,5.2913386 0 0 1 -1.93677,-7.22811 5.2913386,5.2913386 0 0 1 7.22811,-1.936761 5.2913386,5.2913386 0 0 1 1.93675,7.228101 z" />
    <path
       id="path175"
       style="fill:#ffffff;fill-opacity:1;stroke:#000000;stroke-width:0.755906;stroke-linecap:round;stroke-dasharray:none;stroke-dashoffset:0;stroke-opacity:1"
       d="m 66.302668,433.59202 11.456086,6.61418 -6.614174,11.45608 -11.456088,-6.61417 z m 7.003384,11.68081 a 5.2913386,5.2913386 0 0 1 -7.228096,1.93676 5.2913386,5.2913386 0 0 1 -1.936765,-7.2281 5.2913386,5.2913386 0 0 1 7.228105,-1.93676 5.2913386,5.2913386 0 0 1 1.936756,7.2281 z" />
    <path
       id="path176"
       style="fill:#ffffff;fill-opacity:1;stroke:#000000;stroke-width:0.755906;stroke-linecap:round;stroke-dasharray:none;stroke-dashoffset:0;stroke-opacity:1"
       d="m 402.147,-26.305578 9.83058,8.851485 -8.8515,9.8305842 -9.83058,-8.8514932 z m 4.42176,12.88163 a 5.2913386,5.2913386 0 0 1 -7.47281,0.391642 5.2913386,5.2913386 0 0 1 -0.39164,-7.472826 5.2913386,5.2913386 0 0 1 7.47283,-0.391642 5.2913386,5.2913386 0 0 1 0.39162,7.472826 z" />
    <path
       id="path177"
       style="fill:#ffffff;fill-opacity:1;stroke:#000000;stroke-width:0.755906;stroke-linecap:round;stroke-dasharray:none;stroke-dashoffset:0;stroke-opacity:1"
       d="m 19.929045,398.19046 9.83058,8.85149 -8.851494,9.83058 -9.83058,-8.85149 z m 4.421768,12.88163 a 5.2913386,5.2913386 0 0 1 -7.472823,0.39165 5.2913386,5.2913386 0 0 1 -0.391634,-7.47284 5.2913386,5.2913386 0 0 1 7.47283,-0.39163 5.2913386,5.2913386 0 0 1 0.391627,7.47282 z" />
    <path
       id="path178"
       style="fill:#ffffff;fill-opacity:1;stroke:#000000;stroke-width:0.755906;stroke-linecap:round;stroke-dasharray:none;stroke-dashoffset:0;stroke-opacity:1"
       d="m 444.05246,18.168679 7.77543,10.701959 -10.70196,7.775429 -7.77543,-10.701959 z m 1.6469,13.519478 a 5.2913386,5.2913386 0 0 1 -7.39095,-1.170605 5.2913386,5.2913386 0 0 1 1.17062,-7.390955 5.2913386,5.2913386 0 0 1 7.39095,1.170612 5.2913386,5.2913386 0 0 1 -1.17062,7.390948 z" />
    <path
       id="path179"
       style="fill:#ffffff;fill-opacity:1;stroke:#000000;stroke-width:0.755906;stroke-linecap:round;stroke-dasharray:none;stroke-dashoffset:0;stroke-opacity:1"
       d="m -18.070802,353.92088 7.775428,10.70196 -10.70196,7.77543 -7.775428,-10.70196 z m 1.646899,13.51948 a 5.2913386,5.2913386 0 0 1 -7.39095,-1.1706 5.2913386,5.2913386 0 0 1 1.170613,-7.39096 5.2913386,5.2913386 0 0 1 7.390954,1.17061 5.2913386,5.2913386 0 0 1 -1.170617,7.39095 z" />
    <path
       id="path180"
       style="fill:#ffffff;fill-opacity:1;stroke:#000000;stroke-width:0.755906;stroke-linecap:round;stroke-dasharray:none;stroke-dashoffset:0;stroke-opacity:1"
       d="m 475.79547,70.383708 5.38046,12.0847 -12.0847,5.380451 -5.38045,-12.084695 z m -1.19995,13.566454 a 5.2913386,5.2913386 0 0 1 -6.98605,-2.681688 5.2913386,5.2913386 0 0 1 2.68169,-6.986062 5.2913386,5.2913386 0 0 1 6.98607,2.681698 5.2913386,5.2913386 0 0 1 -2.68171,6.986052 z" />
    <path
       id="path181"
       style="fill:#ffffff;fill-opacity:1;stroke:#000000;stroke-width:0.755906;stroke-linecap:round;stroke-dasharray:none;stroke-dashoffset:0;stroke-opacity:1"
       d="m -46.0361,302.71809 5.380456,12.0847 -12.084701,5.38046 -5.380454,-12.08471 z m -1.199946,13.56645 a 5.2913386,5.2913386 0 0 1 -6.986058,-2.68169 5.2913386,5.2913386 0 0 1 2.681698,-6.98605 5.2913386,5.2913386 0 0 1 6.986062,2.68169 5.2913386,5.2913386 0 0 1 -2.681702,6.98605 z" />
    <path
       id="path182"
       style="fill:#ffffff;fill-opacity:1;stroke:#000000;stroke-width:0.755906;stroke-linecap:round;stroke-dasharray:none;stroke-dashoffset:0;stroke-opacity:1"
       d="m 495.9887,128.05745 2.75033,12.93928 -12.93928,2.75033 -2.75033,-12.93928 z m -3.99435,13.02052 a 5.2913386,5.2913386 0 0 1 -6.27583,-4.07557 5.2913386,5.2913386 0 0 1 4.07557,-6.27585 5.2913386,5.2913386 0 0 1 6.27584,4.07558 5.2913386,5.2913386 0 0 1 -4.07558,6.27584 z" />
    <path
       id="path183"
       style="fill:#ffffff;fill-opacity:1;stroke:#000000;stroke-width:0.755906;stroke-linecap:round;stroke-dasharray:none;stroke-dashoffset:0;stroke-opacity:1"
       d="m -62.74463,246.81989 2.750329,12.93928 -12.939277,2.75033 -2.75033,-12.93929 z m -3.99435,13.02052 a 5.2913386,5.2913386 0 0 1 -6.275838,-4.07557 5.2913386,5.2913386 0 0 1 4.07558,-6.27585 5.2913386,5.2913386 0 0 1 6.275841,4.07558 5.2913386,5.2913386 0 0 1 -4.075583,6.27584 z" />
    <path
       id="path184"
       style="fill:#ffffff;fill-opacity:1;stroke:#000000;stroke-width:0.755906;stroke-linecap:round;stroke-dasharray:none;stroke-dashoffset:0;stroke-opacity:1"
       d="m 503.74962,188.6693 v 13.22835 H 490.52127 V 188.6693 Z m -6.61418,11.90551 a 5.2913386,5.2913386 0 0 1 -5.29134,-5.29133 5.2913386,5.2913386 0 0 1 5.29134,-5.29134 5.2913386,5.2913386 0 0 1 5.29134,5.29134 5.2913386,5.2913386 0 0 1 -5.29134,5.29133 z" />
    <path
       id="path185"
       style="fill:#ffffff;fill-opacity:1;stroke:#000000;stroke-width:0.755906;stroke-linecap:round;stroke-dasharray:none;stroke-dashoffset:0;stroke-opacity:1"
       d="m -67.466148,188.6693 v 13.22835 h -13.22835 V 188.6693 Z m -6.61418,11.90551 a 5.2913386,5.2913386 0 0 1 -5.29134,-5.29133 5.2913386,5.2913386 0 0 1 5.29134,-5.29134 5.2913386,5.2913386 0 0 1 5.29134,5.29134 5.2913386,5.2913386 0 0 1 -5.29134,5.29133 z" />
    <path
       id="path186"
       style="fill:#ffffff;fill-opacity:1;stroke:#000000;stroke-width:0.755906;stroke-linecap:round;stroke-dasharray:none;stroke-dashoffset:0;stroke-opacity:1"
       d="m 498.73903,249.57022 -2.75033,12.93928 -12.93928,-2.75033 2.75033,-12.93928 z m -8.94494,10.27018 a 5.2913386,5.2913386 0 0 1 -4.07558,-6.27583 5.2913386,5.2913386 0 0 1 6.27584,-4.07558 5.2913386,5.2913386 0 0 1 4.07558,6.27584 5.2913386,5.2913386 0 0 1 -6.27584,4.07557 z" />
    <path
       id="path187"
       style="fill:#ffffff;fill-opacity:1;stroke:#000000;stroke-width:0.755906;stroke-linecap:round;stroke-dasharray:none;stroke-dashoffset:0;stroke-opacity:1"
       d="m -59.994303,130.80778 -2.750328,12.93928 -12.939277,-2.75033 2.75032,-12.93928 z m -8.944945,10.27018 a 5.2913386,5.2913386 0 0 1 -4.07557,-6.27583 5.2913386,5.2913386 0 0 1 6.275832,-4.07558 5.2913386,5.2913386 0 0 1 4.075585,6.27584 5.2913386,5.2913386 0 0 1 -6.275847,4.07557 z" />
    <g
       id="g193"
       style="fill:#ffffff;fill-opacity:1"
       transform="rotate(6,-415.06884,468.58165)">
      <path
         id="path188"
         style="fill:#ffffff;fill-opacity:1;stroke:#000000;stroke-width:0.755906;stroke-linecap:round;stroke-dasharray:none;stroke-dashoffset:0;stroke-opacity:1"
         d="m 459.49115,215.2946 -4.08779,12.58091 -12.58091,-4.08778 4.08779,-12.58091 z m -9.96947,9.27892 a 5.2913386,5.2913386 0 0 1 -3.39725,-6.66747 5.2913386,5.2913386 0 0 1 6.66748,-3.39725 5.2913386,5.2913386 0 0 1 3.39725,6.66748 5.2913386,5.2913386 0 0 1 -6.66748,3.39724 z" />
      <path
         id="path189"
         style="fill:#ffffff;fill-opacity:1;stroke:#000000;stroke-width:0.755906;stroke-linecap:round;stroke-dasharray:none;stroke-dashoffset:0;stroke-opacity:1"
         d="m -83.767335,38.779223 -4.087785,12.580908 -12.58091,-4.087785 4.087787,-12.580908 z m -9.969464,9.278919 a 5.2913386,5.2913386 0 0 1 -3.397252,-6.667468 5.2913386,5.2913386 0 0 1 6.667477,-3.39725 5.2913386,5.2913386 0 0 1 3.397249,6.667478 5.2913386,5.2913386 0 0 1 -6.667474,3.39724 z" />
      <path
         id="path190"
         style="fill:#ffffff;fill-opacity:1;stroke:#000000;stroke-width:0.755906;stroke-linecap:round;stroke-dasharray:none;stroke-dashoffset:0;stroke-opacity:1"
         d="m 435.90637,271.66646 -6.61417,11.45609 -11.45609,-6.61418 6.61418,-11.45608 z m -11.6808,7.00338 a 5.2913386,5.2913386 0 0 1 -1.93677,-7.22809 5.2913386,5.2913386 0 0 1 7.2281,-1.93677 5.2913386,5.2913386 0 0 1 1.93677,7.22811 5.2913386,5.2913386 0 0 1 -7.2281,1.93675 z" />
      <path
         id="path191"
         style="fill:#ffffff;fill-opacity:1;stroke:#000000;stroke-width:0.755906;stroke-linecap:round;stroke-dasharray:none;stroke-dashoffset:0;stroke-opacity:1"
         d="m -58.780995,-13.941424 -6.614175,11.4560869 -11.456088,-6.614175 6.614175,-11.4560869 z m -11.680803,7.0033839 a 5.2913386,5.2913386 0 0 1 -1.93677,-7.2280959 5.2913386,5.2913386 0 0 1 7.228105,-1.936765 5.2913386,5.2913386 0 0 1 1.936765,7.2281047 5.2913386,5.2913386 0 0 1 -7.2281,1.9367562 z" />
      <path
         id="path192"
         style="fill:#ffffff;fill-opacity:1;stroke:#000000;stroke-width:0.755906;stroke-linecap:round;stroke-dasharray:none;stroke-dashoffset:0;stroke-opacity:1"
         d="m 401.11662,321.90291 -8.8515,9.83058 -9.83058,-8.8515 8.8515,-9.83058 z m -12.88164,4.42177 a 5.2913386,5.2913386 0 0 1 -0.39164,-7.47283 5.2913386,5.2913386 0 0 1 7.47283,-0.39163 5.2913386,5.2913386 0 0 1 0.39163,7.47283 5.2913386,5.2913386 0 0 1 -7.47282,0.39163 z" />
      <path
         id="path193"
         style="fill:#ffffff;fill-opacity:1;stroke:#000000;stroke-width:0.755906;stroke-linecap:round;stroke-dasharray:none;stroke-dashoffset:0;stroke-opacity:1"
         d="m -23.379428,-60.315047 -8.851494,9.83058 -9.83058,-8.851494 8.851494,-9.830579 z m -12.881635,4.421768 a 5.2913386,5.2913386 0 0 1 -0.391641,-7.472822 5.2913386,5.2913386 0 0 1 7.472829,-0.391634 5.2913386,5.2913386 0 0 1 0.391635,7.472829 5.2913386,5.2913386 0 0 1 -7.472823,0.391627 z" />
    </g>
    <path
       id="path194"
       style="fill:#ffffff;fill-opacity:1;stroke:#000000;stroke-width:0.755906;stroke-linecap:round;stroke-dasharray:none;stroke-dashoffset:0;stroke-opacity:1"
       d="m 363.36664,445.04811 -11.45609,6.61418 -6.61418,-11.45609 11.45609,-6.61417 z m -13.61757,0.22471 a 5.2913386,5.2913386 0 0 1 1.93676,-7.2281 5.2913386,5.2913386 0 0 1 7.22811,1.93676 5.2913386,5.2913386 0 0 1 -1.93677,7.22811 5.2913386,5.2913386 0 0 1 -7.2281,-1.93677 z" />
    <path
       id="path195"
       style="fill:#ffffff;fill-opacity:1;stroke:#000000;stroke-width:0.755906;stroke-linecap:round;stroke-dasharray:none;stroke-dashoffset:0;stroke-opacity:1"
       d="m 77.758751,-49.639247 -11.456086,6.61417 -6.614177,-11.45608 11.456089,-6.614181 z m -13.617564,0.2247 a 5.2913386,5.2913386 0 0 1 1.936757,-7.228091 5.2913386,5.2913386 0 0 1 7.228105,1.936761 5.2913386,5.2913386 0 0 1 -1.936766,7.2281 5.2913386,5.2913386 0 0 1 -7.228096,-1.93677 z" />
    <path
       id="path196"
       style="fill:#ffffff;fill-opacity:1;stroke:#000000;stroke-width:0.755906;stroke-linecap:round;stroke-dasharray:none;stroke-dashoffset:0;stroke-opacity:1"
       d="m 308.1196,471.15927 -12.58091,4.08779 -4.08778,-12.58091 12.58091,-4.08778 z m -13.36671,-2.61145 a 5.2913386,5.2913386 0 0 1 3.39724,-6.66747 5.2913386,5.2913386 0 0 1 6.66748,3.39724 5.2913386,5.2913386 0 0 1 -3.39725,6.66749 5.2913386,5.2913386 0 0 1 -6.66747,-3.39726 z" />
    <path
       id="path197"
       style="fill:#ffffff;fill-opacity:1;stroke:#000000;stroke-width:0.755906;stroke-linecap:round;stroke-dasharray:none;stroke-dashoffset:0;stroke-opacity:1"
       d="m 131.60422,-72.099198 -12.58091,4.08779 -4.08779,-12.580911 12.58091,-4.08779 z m -13.36671,-2.61146 a 5.2913386,5.2913386 0 0 1 3.39724,-6.667471 5.2913386,5.2913386 0 0 1 6.66748,3.39724 5.2913386,5.2913386 0 0 1 -3.39725,6.667491 5.2913386,5.2913386 0 0 1 -6.66747,-3.39726 z" />
    <path
       id="path198"
       style="fill:#ffffff;fill-opacity:1;stroke:#000000;stroke-width:0.755906;stroke-linecap:round;stroke-dasharray:none;stroke-dashoffset:0;stroke-opacity:1"
       d="m 248.65103,485.21335 -13.15589,1.38273 -1.38273,-13.15589 13.15588,-1.38273 z m -12.53167,-5.33349 a 5.2913386,5.2913386 0 0 1 4.70925,-5.81545 5.2913386,5.2913386 0 0 1 5.81546,4.70926 5.2913386,5.2913386 0 0 1 -4.70927,5.81545 5.2913386,5.2913386 0 0 1 -5.81544,-4.70926 z" />
    <path
       id="path199"
       style="fill:#ffffff;fill-opacity:1;stroke:#000000;stroke-width:0.755906;stroke-linecap:round;stroke-dasharray:none;stroke-dashoffset:0;stroke-opacity:1"
       d="m 188.94272,-82.873249 -13.15588,1.38274 -1.38274,-13.15588 13.15588,-1.382751 z m -12.53166,-5.33348 a 5.2913386,5.2913386 0 0 1 4.70925,-5.81545 5.2913386,5.2913386 0 0 1 5.81545,4.70926 5.2913386,5.2913386 0 0 1 -4.70926,5.81544 5.2913386,5.2913386 0 0 1 -5.81544,-4.70925 z" />
    <g
       id="g320"
       transform="translate(1052,93.275729)">
      <path
         id="path221"
         style="fill:#000000;fill-opacity:1;stroke:none;stroke-width:0.755906;stroke-linecap:round"
         d="M -370.37892,-9.9980472 A 113.00788,113.00788 0 0 0 -473.53127,55.505861 113.00788,113.00788 0 0 0 -418.49416,205.54688 113.00788,113.00788 0 0 0 -268.45313,150.50977 113.00788,113.00788 0 0 0 -323.49025,0.46875002 113.00788,113.00788 0 0 0 -370.37892,-9.9980472 Z m -43.38086,12.9296879 c 2.06229,-0.046992 4.05017,1.1211812 4.94922,3.1210939 1.19908,2.6655575 0.01,5.7976784 -2.65625,6.9960944 -2.66486,1.198757 -5.79701,0.01042 -6.9961,-2.654297 -1.20006,-2.6651132 -0.0111,-5.7986453 2.6543,-6.9980475 0.66645,-0.3000931 1.3614,-0.4491799 2.04883,-0.4648438 z m 86.63672,0.4765625 c 0.68707,0.023062 1.37993,0.1811709 2.04297,0.4882813 2.65317,1.228106 3.80787,4.3769069 2.57813,7.0292975 -1.22876,2.652 -4.3737,3.805586 -7.0254,2.576172 -2.65133,-1.22844 -3.80624,-4.3739305 -2.57812,-7.0253913 0.92083,-1.989348 2.92123,-3.1375463 4.98242,-3.0683595 z M -438.20119,18.796876 c 1.35066,0.104315 2.66069,0.723519 3.61133,1.833984 1.90135,2.219885 1.64419,5.560147 -0.57617,7.460938 -2.21931,1.900839 -5.55983,1.642905 -7.46094,-0.576172 -1.90215,-2.219183 -1.64543,-5.55933 0.57422,-7.460938 1.10988,-0.951326 2.5009,-1.362127 3.85156,-1.257812 z m 135.34376,0.746093 c 1.35141,-0.08962 2.73655,0.33596 3.83593,1.298829 2.1998,1.925699 2.42121,5.27209 0.49415,7.470703 -1.926,2.198513 -5.27071,2.418732 -7.46875,0.492188 -2.19794,-1.9255 -2.41938,-5.26862 -0.49415,-7.466798 0.9626,-1.099618 2.28141,-1.705296 3.63282,-1.794922 z m -155.37696,21.539064 c 1.01916,-0.01803 2.05573,0.257957 2.97461,0.855468 2.45011,1.59232 3.14475,4.870009 1.55273,7.320313 -1.59184,2.451362 -4.86936,3.147163 -7.32031,1.554688 -2.45198,-1.592254 -3.14846,-4.871275 -1.55469,-7.322266 0.99546,-1.531723 2.64905,-2.378147 4.34766,-2.408203 z m 175.11915,0.90625 c 1.69819,0.04763 3.3427,0.911195 4.32226,2.453125 1.56832,2.467344 0.83941,5.73984 -1.6289,7.306641 -2.46728,1.567008 -5.7383,0.836815 -7.30469,-1.63086 -1.56658,-2.466637 -0.83754,-5.737797 1.6289,-7.304687 0.92502,-0.587967 1.96351,-0.852797 2.98243,-0.824219 z m -186.98634,25.955079 c 0.35025,0.03131 0.70274,0.09829 1.05274,0.203125 2.7994,0.837745 4.38817,3.786434 3.55078,6.585938 -0.83691,2.800434 -3.7857,4.392267 -6.58594,3.554687 -2.80121,-0.83711 -4.3916,-3.787205 -3.55274,-6.587891 0.73321,-2.450145 3.08338,-3.975013 5.53516,-3.755859 z m 198.57813,1.027344 c 2.4539,-0.19376 4.78632,1.354918 5.49414,3.8125 0.80984,2.809199 -0.81139,5.742675 -3.62109,6.550781 -2.80877,0.808599 -5.74093,-0.814076 -6.54883,-3.623047 -0.80837,-2.80803 0.81317,-5.738157 3.6211,-6.546875 0.35105,-0.101204 0.70413,-0.165679 1.05468,-0.193359 z m -203.375,28.207032 c 2.92204,0.01528 5.2786,2.396319 5.26367,5.318362 -0.0142,2.9228 -2.39557,5.28055 -5.31836,5.26562 -2.92356,-0.0142 -5.28166,-2.39676 -5.26563,-5.32031 0.0153,-2.922764 2.39756,-5.279654 5.32032,-5.263672 z m 207.86719,1.076172 c 2.9228,0.01422 5.28053,2.39556 5.26563,5.31836 -0.0142,2.92356 -2.39677,5.28162 -5.32032,5.26562 -2.92279,-0.0153 -5.27967,-2.39752 -5.26367,-5.32031 0.0153,-2.92203 2.39633,-5.2786 5.31836,-5.26367 z m -204.24805,28.23633 c 2.45337,-0.19294 4.7865,1.35555 5.49414,3.8125 0.80963,2.80845 -0.81049,5.74183 -3.61914,6.55078 -2.8092,0.80984 -5.74463,-0.81335 -6.55274,-3.62305 -0.80858,-2.80874 0.81412,-5.7409 3.62305,-6.54882 0.351,-0.10105 0.7042,-0.16385 1.05469,-0.19141 z m 200.32618,1.03711 c 0.35017,0.0312 0.70279,0.0965 1.05273,0.20117 2.80045,0.83691 4.3923,3.78569 3.55469,6.58594 -0.83714,2.80118 -3.78722,4.39355 -6.58789,3.55469 -2.80014,-0.83795 -4.39137,-3.78796 -3.55274,-6.5879 0.73302,-2.44949 3.08196,-3.9722 5.53321,-3.7539 z m -187.62696,25.91797 c 1.6978,0.048 3.341,0.9116 4.32031,2.45312 1.56791,2.4667 0.84014,5.73739 -1.62695,7.30469 -2.46734,1.5683 -5.73985,0.83743 -7.30665,-1.63086 -1.56701,-2.46728 -0.8368,-5.73633 1.63086,-7.30273 0.92499,-0.58747 1.96375,-0.85303 2.98243,-0.82422 z m 174.65039,0.90429 c 1.01892,-0.0183 2.0538,0.25651 2.97266,0.85352 2.45134,1.59184 3.14714,4.86937 1.55469,7.32031 -1.59225,2.45196 -4.87129,3.14844 -7.32227,1.55469 -2.45075,-1.59274 -3.14608,-4.87192 -1.55273,-7.32227 0.9952,-1.53131 2.64945,-2.37581 4.34765,-2.40625 z m -155.89649,21.56251 c 1.35112,-0.0894 2.73685,0.33621 3.83594,1.29882 2.19923,1.92519 2.42183,5.26805 0.49609,7.4668 -1.9257,2.1998 -5.27209,2.4212 -7.4707,0.49414 -2.1985,-1.92601 -2.41873,-5.26876 -0.49219,-7.4668 0.96275,-1.09897 2.27974,-1.70361 3.63086,-1.79296 z m 136.85743,0.7539 c 1.35038,0.10404 2.66052,0.72416 3.61133,1.83399 1.90266,2.21976 1.64477,5.5616 -0.57617,7.46289 -2.21989,1.90134 -5.56015,1.64223 -7.46094,-0.57813 -1.90084,-2.2193 -1.6429,-5.55787 0.57617,-7.45898 1.10959,-0.95108 2.49923,-1.36381 3.84961,-1.25977 z m -111.53321,15.35938 c 0.6869,0.0231 1.38206,0.18125 2.04492,0.48828 2.65245,1.22778 3.80657,4.37324 2.57813,7.02539 -1.2281,2.65315 -4.37495,3.80786 -7.02734,2.57812 -2.652,-1.22876 -3.8056,-4.37369 -2.57618,-7.02539 0.92133,-1.98848 2.91976,-3.13577 4.98047,-3.0664 z m 86.03126,0.47461 c 2.06181,-0.0472 4.04966,1.122 4.94921,3.12109 1.20037,2.66581 0.0122,5.79932 -2.65429,6.99805 -2.66555,1.19907 -5.79963,0.01 -6.99805,-2.65625 -1.19877,-2.66486 -0.0104,-5.79701 2.6543,-6.9961 0.66628,-0.30001 1.36155,-0.45106 2.04883,-0.46679 z" />
      <g
         id="g319"
         transform="translate(259.99983,-1.1647404e-4)">
        <path
           id="path202"
           style="fill:#d2941b;fill-opacity:1;stroke:#000000;stroke-width:0.755906;stroke-linecap:round"
           d="m -569.27755,175.05474 a 9.0708672,9.0708672 0 0 0 -0.98775,12.78928 9.0708672,9.0708672 0 0 0 0.26723,0.27 l -0.0207,0.0178 5.65553,6.60223 6.88851,-5.90075 6.89,-5.90203 -5.65553,-6.60224 -0.0207,0.0178 a 9.0708672,9.0708672 0 0 0 -0.22576,-0.30552 9.0708672,9.0708672 0 0 0 -12.79077,-0.98649 z m 2.45865,2.87022 a 5.2913386,5.2913386 0 0 1 7.4619,0.57492 5.2913386,5.2913386 0 0 1 -0.5764,7.46317 5.2913386,5.2913386 0 0 1 -7.46168,-0.57768 5.2913386,5.2913386 0 0 1 0.57618,-7.46041 z" />
        <path
           id="path205"
           style="fill:#d2941b;fill-opacity:1;stroke:#000000;stroke-width:0.755906;stroke-linecap:round"
           d="m -692.70816,30.96247 a 9.0708672,9.0708672 0 0 1 -12.78928,-0.98776 9.0708672,9.0708672 0 0 1 -0.22576,-0.30552 l -0.0207,0.0178 -5.65553,-6.60223 6.88851,-5.90076 6.89,-5.90203 5.65553,6.60223 -0.0207,0.0178 a 9.0708672,9.0708672 0 0 1 0.26723,0.27 9.0708672,9.0708672 0 0 1 -0.98924,12.79055 z m -2.45865,-2.87021 a 5.2913386,5.2913386 0 0 0 0.57767,-7.46169 5.2913386,5.2913386 0 0 0 -7.46316,-0.5764 5.2913386,5.2913386 0 0 0 -0.57492,7.46189 5.2913386,5.2913386 0 0 0 7.46041,0.5762 z" />
        <path
           id="path207"
           style="fill:#d2941b;fill-opacity:1;stroke:#000000;stroke-width:0.755906;stroke-linecap:round"
           d="m -669.91615,16.49587 a 9.0708672,9.0708672 0 0 1 -11.99323,-4.55015 9.0708672,9.0708672 0 0 1 -0.13056,-0.35674 l -0.0249,0.0112 -3.56688,-7.92792 8.27168,-3.72154 8.27347,-3.72234 3.56687,7.92792 -0.0249,0.0112 a 9.0708672,9.0708672 0 0 1 0.18038,0.33432 9.0708672,9.0708672 0 0 1 -4.55192,11.99403 z m -1.55065,-3.44654 a 5.2913386,5.2913386 0 0 0 2.65603,-6.99685 5.2913386,5.2913386 0 0 0 -6.99863,-2.65523 5.2913386,5.2913386 0 0 0 -2.65344,6.99783 5.2913386,5.2913386 0 0 0 6.99604,2.65425 z" />
        <path
           id="path215"
           style="fill:#d2941b;fill-opacity:1;stroke:#000000;stroke-width:0.755906;stroke-linecap:round"
           d="m -592.06985,189.52088 a 9.0708672,9.0708672 0 0 0 -4.55014,11.99322 9.0708672,9.0708672 0 0 0 0.18039,0.33432 l -0.0251,0.011 3.56687,7.92792 8.27167,-3.72154 8.27347,-3.72234 -3.56687,-7.92793 -0.0251,0.011 a 9.0708672,9.0708672 0 0 0 -0.13056,-0.35674 9.0708672,9.0708672 0 0 0 -11.99501,-4.54934 z m 1.55064,3.44653 a 5.2913386,5.2913386 0 0 1 6.99783,2.65345 5.2913386,5.2913386 0 0 1 -2.65523,6.99863 5.2913386,5.2913386 0 0 1 -6.99684,-2.65603 5.2913386,5.2913386 0 0 1 2.65424,-6.99605 z" />
        <path
           id="path222"
           style="fill:#d2941b;fill-opacity:1;stroke:#000000;stroke-width:0.755906;stroke-linecap:round"
           d="m -670.86915,189.08495 a 9.0708672,9.0708672 0 0 0 -12.04275,4.41743 9.0708672,9.0708672 0 0 0 -0.13449,0.35527 l -0.0247,-0.0115 -3.65421,7.88804 8.23008,3.81266 8.23186,3.81349 3.65421,-7.88805 -0.0247,-0.0115 a 9.0708672,9.0708672 0 0 0 0.18403,-0.33232 9.0708672,9.0708672 0 0 0 -4.41918,-12.04357 z m -1.58861,3.42921 a 5.2913386,5.2913386 0 0 1 2.5786,7.02575 5.2913386,5.2913386 0 0 1 -7.02753,2.57778 5.2913386,5.2913386 0 0 1 -2.576,-7.0267 5.2913386,5.2913386 0 0 1 7.02493,-2.57683 z" />
        <path
           id="path223"
           style="fill:#d2941b;fill-opacity:1;stroke:#000000;stroke-width:0.755906;stroke-linecap:round"
           d="m -591.11685,16.93018 a 9.0708672,9.0708672 0 0 1 -4.41741,-12.04275 9.0708672,9.0708672 0 0 1 0.18405,-0.33233 l -0.0247,-0.0115 3.65421,-7.88805 8.23008,3.81266 8.23185,3.81349 -3.65421,7.88804 -0.0247,-0.0115 a 9.0708672,9.0708672 0 0 1 -0.1345,0.35527 9.0708672,9.0708672 0 0 1 -12.04452,4.41661 z m 1.58862,-3.42921 a 5.2913386,5.2913386 0 0 0 7.0267,-2.57601 5.2913386,5.2913386 0 0 0 -2.57777,-7.02753 5.2913386,5.2913386 0 0 0 -7.02576,2.57861 5.2913386,5.2913386 0 0 0 2.57683,7.02493 z" />
        <path
           id="path224"
           style="fill:#d2941b;fill-opacity:1;stroke:#000000;stroke-width:0.755906;stroke-linecap:round"
           d="m -693.50001,174.36753 a 9.0708672,9.0708672 0 0 0 -12.7994,0.84648 9.0708672,9.0708672 0 0 0 -0.22909,0.30303 l -0.0207,-0.0181 -5.72809,6.53938 6.82293,5.97647 6.8244,5.97775 5.7281,-6.53938 -0.0207,-0.018 a 9.0708672,9.0708672 0 0 0 0.27021,-0.26702 9.0708672,9.0708672 0 0 0 -0.84793,-12.8007 z m -2.4902,2.8429 a 5.2913386,5.2913386 0 0 1 0.49524,7.46761 5.2913386,5.2913386 0 0 1 -7.46908,0.49394 5.2913386,5.2913386 0 0 1 -0.49247,-7.46777 5.2913386,5.2913386 0 0 1 7.46631,-0.49378 z" />
        <path
           id="path225"
           style="fill:#d2941b;fill-opacity:1;stroke:#000000;stroke-width:0.755906;stroke-linecap:round"
           d="m -568.48567,31.64712 a 9.0708672,9.0708672 0 0 1 -0.84647,-12.7994 9.0708672,9.0708672 0 0 1 0.2702,-0.26703 l -0.0206,-0.0179 5.72809,-6.53937 6.82293,5.97647 6.82441,5.97775 -5.72811,6.53938 -0.0206,-0.0179 a 9.0708672,9.0708672 0 0 1 -0.2291,0.30302 9.0708672,9.0708672 0 0 1 -12.80087,0.84519 z m 2.49019,-2.84289 a 5.2913386,5.2913386 0 0 0 7.46778,-0.49248 5.2913386,5.2913386 0 0 0 -0.49394,-7.46908 5.2913386,5.2913386 0 0 0 -7.46761,0.49525 5.2913386,5.2913386 0 0 0 0.49377,7.46631 z" />
        <path
           id="path226"
           style="fill:#d2941b;fill-opacity:1;stroke:#000000;stroke-width:0.755906;stroke-linecap:round"
           d="m -711.06907,153.87154 a 9.0708672,9.0708672 0 0 0 -12.5196,-2.79303 9.0708672,9.0708672 0 0 0 -0.3052,0.22621 l -0.0146,-0.0232 -7.33813,4.66116 4.86327,7.65631 4.86433,7.65797 7.33812,-4.66117 -0.0145,-0.0231 a 9.0708672,9.0708672 0 0 0 0.33447,-0.18011 9.0708672,9.0708672 0 0 0 2.792,-12.52124 z m -3.19014,2.02637 a 5.2913386,5.2913386 0 0 1 -1.62823,7.30474 5.2913386,5.2913386 0 0 1 -7.30579,-1.62987 5.2913386,5.2913386 0 0 1 1.63093,-7.30414 5.2913386,5.2913386 0 0 1 7.30309,1.62927 z" />
        <path
           id="path227"
           style="fill:#d2941b;fill-opacity:1;stroke:#000000;stroke-width:0.755906;stroke-linecap:round"
           d="m -550.91618,52.14275 a 9.0708672,9.0708672 0 0 1 2.79304,-12.51959 9.0708672,9.0708672 0 0 1 0.33447,-0.18012 l -0.0146,-0.0232 7.33813,-4.66116 4.86328,7.65631 4.86432,7.65797 -7.33812,4.66115 -0.0145,-0.0231 a 9.0708672,9.0708672 0 0 1 -0.30522,0.22617 9.0708672,9.0708672 0 0 1 -12.52065,-2.79468 z m 3.19013,-2.02637 a 5.2913386,5.2913386 0 0 0 7.30415,1.63092 5.2913386,5.2913386 0 0 0 1.62987,-7.30578 5.2913386,5.2913386 0 0 0 -7.30474,-1.62822 5.2913386,5.2913386 0 0 0 -1.62928,7.30308 z" />
        <path
           id="path228"
           style="fill:#d2941b;fill-opacity:1;stroke:#000000;stroke-width:0.755906;stroke-linecap:round"
           d="m -722.15366,129.2567 a 9.0708672,9.0708672 0 0 0 -11.22596,-6.20636 9.0708672,9.0708672 0 0 0 -0.35654,0.13111 l -0.007,-0.0264 -8.35392,2.40548 2.50979,8.71617 2.51034,8.71804 8.35393,-2.4055 -0.007,-0.0264 a 9.0708672,9.0708672 0 0 0 0.37166,-0.0786 9.0708672,9.0708672 0 0 0 6.20583,-11.22785 z m -3.63174,1.04575 a 5.2913386,5.2913386 0 0 1 -3.61984,6.55035 5.2913386,5.2913386 0 0 1 -6.55089,-3.62172 5.2913386,5.2913386 0 0 1 3.62226,-6.549 5.2913386,5.2913386 0 0 1 6.54847,3.62037 z" />
        <path
           id="path229"
           style="fill:#d2941b;fill-opacity:1;stroke:#000000;stroke-width:0.755906;stroke-linecap:round"
           d="m -539.83109,76.75736 a 9.0708672,9.0708672 0 0 1 6.20637,-11.22596 9.0708672,9.0708672 0 0 1 0.37165,-0.07861 l -0.008,-0.02619 8.35393,-2.405491 2.5098,8.716157 2.51033,8.718041 -8.35392,2.405485 -0.008,-0.02619 a 9.0708672,9.0708672 0 0 1 -0.35653,0.1311 9.0708672,9.0708672 0 0 1 -11.22652,-6.208238 z m 3.63173,-1.045758 a 5.2913386,5.2913386 0 0 0 6.54903,3.62226 5.2913386,5.2913386 0 0 0 3.62172,-6.550894 5.2913386,5.2913386 0 0 0 -6.55036,-3.619831 5.2913386,5.2913386 0 0 0 -3.62039,6.548465 z" />
        <path
           id="path230"
           style="fill:#d2941b;fill-opacity:1;stroke:#000000;stroke-width:0.755906;stroke-linecap:round"
           d="m -725.85613,102.51615 a 9.0708672,9.0708672 0 0 0 -9.02329,-9.117106 9.0708672,9.0708672 0 0 0 -0.37903,0.02534 l 2e-4,-0.02728 -8.69324,-0.04497 -0.0469,9.070186 -0.0469,9.07215 8.69324,0.045 2e-4,-0.0273 a 9.0708672,9.0708672 0 0 0 0.37875,0.0293 9.0708672,9.0708672 0 0 0 9.11713,-9.02523 z m -3.77925,-0.0195 a 5.2913386,5.2913386 0 0 1 -5.31834,5.26554 5.2913386,5.2913386 0 0 1 -5.26552,-5.32029 5.2913386,5.2913386 0 0 1 5.32027,-5.263552 5.2913386,5.2913386 0 0 1 5.26359,5.318302 z" />
        <path
           id="path231"
           style="fill:#d2941b;fill-opacity:1;stroke:#000000;stroke-width:0.755906;stroke-linecap:round"
           d="m -536.12807,103.49756 a 9.0708672,9.0708672 0 0 1 9.1171,-9.023275 9.0708672,9.0708672 0 0 1 0.37877,0.02926 l 1.9e-4,-0.02729 8.69324,0.04497 -0.0469,9.070185 -0.0469,9.07215 -8.69324,-0.045 1.9e-4,-0.0273 a 9.0708672,9.0708672 0 0 1 -0.37904,0.0253 9.0708672,9.0708672 0 0 1 -9.02326,-9.11907 z m 3.77925,0.0196 a 5.2913386,5.2913386 0 0 0 5.26356,5.32026 5.2913386,5.2913386 0 0 0 5.32028,-5.26551 5.2913386,5.2913386 0 0 0 -5.26553,-5.318329 5.2913386,5.2913386 0 0 0 -5.31831,5.263579 z" />
        <path
           id="path232"
           style="fill:#d2941b;fill-opacity:1;stroke:#000000;stroke-width:0.755906;stroke-linecap:round"
           d="m -721.87668,75.815554 a 9.0708672,9.0708672 0 0 0 -6.08991,-11.289562 9.0708672,9.0708672 0 0 0 -0.37083,-0.08241 l 0.008,-0.02637 -8.32859,-2.491789 -2.59984,8.689732 -2.60039,8.691601 8.3286,2.491789 0.008,-0.02628 a 9.0708672,9.0708672 0 0 0 0.35517,0.134781 9.0708672,9.0708672 0 0 0 11.29013,-6.091772 z m -3.62072,-1.083263 a 5.2913386,5.2913386 0 0 1 -6.58615,3.55431 5.2913386,5.2913386 0 0 1 -3.55374,-6.588018 5.2913386,5.2913386 0 0 1 6.58744,-3.551867 5.2913386,5.2913386 0 0 1 3.55245,6.585575 z" />
        <path
           id="path233"
           style="fill:#d2941b;fill-opacity:1;stroke:#000000;stroke-width:0.755906;stroke-linecap:round"
           d="m -540.10697,130.19825 a 9.0708672,9.0708672 0 0 1 11.28956,-6.0899 9.0708672,9.0708672 0 0 1 0.35517,0.13476 l 0.008,-0.0262 8.3286,2.49179 -2.59984,8.68973 -2.6004,8.69161 -8.3286,-2.49179 0.008,-0.0262 a 9.0708672,9.0708672 0 0 1 -0.37083,-0.0824 9.0708672,9.0708672 0 0 1 -6.08935,-11.29144 z m 3.62072,1.08326 a 5.2913386,5.2913386 0 0 0 3.55188,6.58744 5.2913386,5.2913386 0 0 0 6.58801,-3.55374 5.2913386,5.2913386 0 0 0 -3.55431,-6.58614 5.2913386,5.2913386 0 0 0 -6.58558,3.55244 z" />
        <path
           id="path234"
           style="fill:#d2941b;fill-opacity:1;stroke:#000000;stroke-width:0.755906;stroke-linecap:round"
           d="m -710.53754,51.31695 a 9.0708672,9.0708672 0 0 0 -2.66338,-12.54782 9.0708672,9.0708672 0 0 0 -0.3326,-0.18356 l 0.015,-0.0229 -7.28952,-4.73683 -4.94221,7.60559 -4.9433,7.60724 7.28953,4.73682 0.015,-0.0229 a 9.0708672,9.0708672 0 0 0 0.30285,0.22935 9.0708672,9.0708672 0 0 0 12.54888,-2.66501 z m -3.16899,-2.05926 a 5.2913386,5.2913386 0 0 1 -7.32064,1.55527 5.2913386,5.2913386 0 0 1 -1.5542,-7.32227 5.2913386,5.2913386 0 0 1 7.32119,-1.55256 5.2913386,5.2913386 0 0 1 1.55365,7.31956 z" />
        <path
           id="path235"
           style="fill:#d2941b;fill-opacity:1;stroke:#000000;stroke-width:0.755906;stroke-linecap:round"
           d="m -551.44561,154.69709 a 9.0708672,9.0708672 0 0 1 12.54782,-2.66337 9.0708672,9.0708672 0 0 1 0.30285,0.22934 l 0.0148,-0.0232 7.28952,4.73683 -4.94223,7.60559 -4.94328,7.60723 -7.28951,-4.73682 0.0147,-0.0231 a 9.0708672,9.0708672 0 0 1 -0.33257,-0.18361 9.0708672,9.0708672 0 0 1 -2.66231,-12.54945 z m 3.16901,2.05926 a 5.2913386,5.2913386 0 0 0 1.55258,7.3212 5.2913386,5.2913386 0 0 0 7.32224,-1.5542 5.2913386,5.2913386 0 0 0 -1.55527,-7.32063 5.2913386,5.2913386 0 0 0 -7.31955,1.55363 z" />
      </g>
    </g>
    <path
       id="path319"
       style="fill:none;stroke:#000000;stroke-width:0.755906;stroke-linecap:round;stroke-dasharray:0.755906, 4.53544;stroke-dashoffset:0;stroke-opacity:1"
       d="M 324.91103,196.2905 A 113.38582,113.38582 0 0 1 211.52521,309.67633 113.38582,113.38582 0 0 1 98.13938,196.2905 113.38582,113.38582 0 0 1 211.52521,82.904682 113.38582,113.38582 0 0 1 324.91103,196.2905 Z" />
    <text
       xml:space="preserve"
       style="font-size:12px;font-family:Cantarell;-inkscape-font-specification:Cantarell;text-align:start;writing-mode:lr-tb;direction:ltr;text-anchor:start;fill:none;fill-opacity:1;stroke:#000000;stroke-width:0.755906;stroke-linecap:round;stroke-dasharray:0.755906, 4.53544;stroke-dashoffset:0;stroke-opacity:1"
       x="77.575264"
       y="241.9227"
       id="text320"><tspan
         sodipodi:role="line"
         x="77.575264"
         y="241.9227"
         id="tspan321"
         style="text-align:center;text-anchor:middle;fill:#000000;fill-opacity:1;stroke:none">VOUT+</tspan></text>
    <text
       xml:space="preserve"
       style="font-size:12px;font-family:Cantarell;-inkscape-font-specification:Cantarell;text-align:start;writing-mode:lr-tb;direction:ltr;text-anchor:start;fill:none;fill-opacity:1;stroke:#000000;stroke-width:0.755906;stroke-linecap:round;stroke-dasharray:0.755906, 4.53544;stroke-dashoffset:0;stroke-opacity:1"
       x="183.57526"
       y="241.9227"
       id="text322"><tspan
         sodipodi:role="line"
         x="183.57526"
         y="241.9227"
         id="tspan322"
         style="text-align:center;text-anchor:middle;fill:#000000;fill-opacity:1;stroke:none">VOUT-</tspan></text>
    <text
       xml:space="preserve"
       style="font-size:12px;font-family:Cantarell;-inkscape-font-specification:Cantarell;text-align:start;writing-mode:lr-tb;direction:ltr;text-anchor:start;fill:none;fill-opacity:1;stroke:#000000;stroke-width:0.755906;stroke-linecap:round;stroke-dasharray:0.755906, 4.53544;stroke-dashoffset:0;stroke-opacity:1"
       x="83.455261"
       y="119.9227"
       id="text323"><tspan
         sodipodi:role="line"
         x="83.455261"
         y="119.9227"
         id="tspan323"
         style="text-align:center;text-anchor:middle;fill:#000000;fill-opacity:1;stroke:none">VIN+</tspan></text>
    <text
       xml:space="preserve"
       style="font-size:12px;font-family:Cantarell;-inkscape-font-specification:Cantarell;text-align:start;writing-mode:lr-tb;direction:ltr;text-anchor:start;fill:none;fill-opacity:1;stroke:#000000;stroke-width:0.755906;stroke-linecap:round;stroke-dasharray:0.755906, 4.53544;stroke-dashoffset:0;stroke-opacity:1"
       x="177.69527"
       y="119.9227"
       id="text324"><tspan
         sodipodi:role="line"
         x="177.69527"
         y="119.9227"
         id="tspan324"
         style="text-align:center;text-anchor:middle;fill:#000000;fill-opacity:1;stroke:none">VIN-</tspan></text>
    <text
       xml:space="preserve"
       style="font-size:10px;font-family:Cantarell;-inkscape-font-specification:Cantarell;text-align:center;writing-mode:lr-tb;direction:ltr;text-anchor:middle;fill:#000000;fill-opacity:1;stroke:none;stroke-width:0.755906;stroke-linecap:round;stroke-dasharray:0.755906, 4.53544;stroke-dashoffset:0;stroke-opacity:1"
       x="208.29469"
       y="12.262494"
       id="text325"><tspan
         sodipodi:role="line"
         id="tspan325"
         x="208.29469"
         y="12.262494"
         style="font-size:10px;fill:#ffffff;fill-opacity:1">-</tspan></text>
    <text
       xml:space="preserve"
       style="font-size:10px;font-family:Cantarell;-inkscape-font-specification:Cantarell;text-align:center;writing-mode:lr-tb;direction:ltr;text-anchor:middle;fill:#000000;fill-opacity:1;stroke:none;stroke-width:0.755906;stroke-linecap:round;stroke-dasharray:0.755906, 4.53544;stroke-dashoffset:0;stroke-opacity:1"
       x="214.29469"
       y="13.067494"
       id="text326"><tspan
         sodipodi:role="line"
         id="tspan326"
         x="214.29469"
         y="13.067494"
         style="font-size:10px;fill:#ffffff;fill-opacity:1">+</tspan></text>
    <text
       xml:space="preserve"
       style="font-size:10px;font-family:Cantarell;-inkscape-font-specification:Cantarell;text-align:center;writing-mode:lr-tb;direction:ltr;text-anchor:middle;fill:#ffffff;fill-opacity:1;stroke:none;stroke-width:0.755906;stroke-linecap:round;stroke-dasharray:0.755906, 4.53544;stroke-dashoffset:0;stroke-opacity:1"
       x="-177.54796"
       y="127.97537"
       id="text327"
       transform="rotate(-90)"><tspan
         sodipodi:role="line"
         id="tspan327"
         x="-177.54796"
         y="127.97537">BOOST</tspan><tspan
         sodipodi:role="line"
         x="-177.54796"
         y="140.47537"
         id="tspan328">CONVERTER</tspan></text>
    <text
       xml:space="preserve"
       style="font-size:16px;font-family:Cantarell;-inkscape-font-specification:Cantarell;text-align:center;writing-mode:lr-tb;direction:ltr;text-anchor:middle;fill:#000000;fill-opacity:1;stroke:none;stroke-width:0.755906;stroke-linecap:round;stroke-dasharray:0.755906, 4.53544;stroke-dashoffset:0;stroke-opacity:1"
       x="-188.19121"
       y="264.21548"
       id="text330"
       transform="rotate(-90)"><tspan
         sodipodi:role="line"
         x="-188.19121"
         y="264.21548"
         id="tspan330"
         style="font-style:normal;font-variant:normal;font-weight:bold;font-stretch:normal;font-size:16px;font-family:Cantarell;-inkscape-font-specification:'Cantarell Bold'">BATTERY</tspan></text>
    <text
       xml:space="preserve"
       style="font-size:10px;font-family:Cantarell;-inkscape-font-specification:Cantarell;text-align:center;writing-mode:lr-tb;direction:ltr;text-anchor:middle;fill:#000000;fill-opacity:1;stroke:none;stroke-width:0.755906;stroke-linecap:round;stroke-dasharray:0.755906, 4.53544;stroke-dashoffset:0;stroke-opacity:1"
       x="213.96471"
       y="-58.000008"
       id="text331"><tspan
         sodipodi:role="line"
         id="tspan331"
         x="213.96471"
         y="-58.000008">IR</tspan><tspan
         sodipodi:role="line"
         x="213.96471"
         y="-45.500008"
         id="tspan332">RECEIVER</tspan></text>
    <text
       xml:space="preserve"
       style="font-size:10px;font-family:Cantarell;-inkscape-font-specification:Cantarell;text-align:center;writing-mode:lr-tb;direction:ltr;text-anchor:middle;fill:#000000;fill-opacity:1;stroke:none;stroke-width:0.755906;stroke-linecap:round;stroke-dasharray:0.755906, 4.53544;stroke-dashoffset:0;stroke-opacity:1"
       x="211.36757"
       y="505.00006"
       id="text333"><tspan
         sodipodi:role="line"
         id="tspan333"
         x="211.36757"
         y="505.00006">NEOPIXEL RING</tspan></text>
    <path
       id="path333"
       style="fill:#ffffff;fill-opacity:1;stroke:#000000;stroke-width:0.755906;stroke-linecap:round"
       d="m 128.65235,399.90041 v 24.17383 a 297.22208,297.22208 0 0 0 71.75,9.43164 v -24.32227 a 273.22206,273.22206 0 0 1 -71.75,-9.2832 z" />
    <path
       id="path335"
       style="fill:#a9a9a9;fill-opacity:1;stroke:none;stroke-width:0.755905;stroke-linecap:round;stroke-dasharray:none"
       d="m 188.43262,411.69955 c -1.1272,6e-5 -2.04096,0.91382 -2.04102,2.04102 7e-5,1.12719 0.91382,2.04095 2.04102,2.04101 h 7.54066 v -0.0203 c 0.0966,0.0137 0.19402,0.0205 0.29157,0.0203 1.1272,-6e-5 2.04095,-0.91382 2.04102,-2.04101 -6e-5,-1.1272 -0.91382,-2.04096 -2.04102,-2.04102 -0.0976,2e-5 -0.19501,0.007 -0.29157,0.021 v -0.021 z"
       sodipodi:nodetypes="cccccccsccc" />
    <path
       id="path338"
       style="fill:#a9a9a9;fill-opacity:1;stroke:none;stroke-width:0.755905;stroke-linecap:round;stroke-dasharray:none"
       d="m 188.43262,419.69955 c -1.1272,6e-5 -2.04096,0.91382 -2.04102,2.04102 7e-5,1.12719 0.91382,2.04095 2.04102,2.04101 h 7.54066 v -0.0203 c 0.0966,0.0137 0.19402,0.0205 0.29157,0.0203 1.1272,-6e-5 2.04095,-0.91382 2.04102,-2.04101 -6e-5,-1.1272 -0.91382,-2.04096 -2.04102,-2.04102 -0.0976,2e-5 -0.19501,0.007 -0.29157,0.021 v -0.021 z"
       sodipodi:nodetypes="cccccccsccc" />
    <path
       id="path339"
       style="fill:#a9a9a9;fill-opacity:1;stroke:none;stroke-width:0.755905;stroke-linecap:round;stroke-dasharray:none"
       d="m 188.43262,427.69955 c -1.1272,6e-5 -2.04096,0.91382 -2.04102,2.04102 7e-5,1.12719 0.91382,2.04095 2.04102,2.04101 h 7.54066 v -0.0203 c 0.0966,0.0137 0.19402,0.0205 0.29157,0.0203 1.1272,-6e-5 2.04095,-0.91382 2.04102,-2.04101 -6e-5,-1.1272 -0.91382,-2.04096 -2.04102,-2.04102 -0.0976,2e-5 -0.19501,0.007 -0.29157,0.021 v -0.021 z"
       sodipodi:nodetypes="cccccccsccc" />
    <path
       id="path341"
       style="fill:#ffffff;fill-opacity:1;stroke:#000000;stroke-width:0.755906;stroke-linecap:round"
       d="m 294.40235,399.90041 v 24.17383 a 297.22208,297.22208 0 0 1 -71.75,9.43164 v -24.32227 a 273.22206,273.22206 0 0 0 71.75,-9.2832 z" />
    <path
       id="path342"
       style="fill:#a9a9a9;fill-opacity:1;stroke:none;stroke-width:0.755905;stroke-linecap:round;stroke-dasharray:none"
       d="m 234.62208,411.69955 c 1.1272,6e-5 2.04096,0.91382 2.04102,2.04102 -7e-5,1.12719 -0.91382,2.04095 -2.04102,2.04101 h -7.54066 v -0.0203 c -0.0966,0.0137 -0.19402,0.0205 -0.29157,0.0203 -1.1272,-6e-5 -2.04095,-0.91382 -2.04102,-2.04101 6e-5,-1.1272 0.91382,-2.04096 2.04102,-2.04102 0.0976,2e-5 0.19501,0.007 0.29157,0.021 v -0.021 z"
       sodipodi:nodetypes="cccccccsccc" />
    <path
       id="path343"
       style="fill:#a9a9a9;fill-opacity:1;stroke:none;stroke-width:0.755905;stroke-linecap:round;stroke-dasharray:none"
       d="m 234.62208,419.69955 c 1.1272,6e-5 2.04096,0.91382 2.04102,2.04102 -7e-5,1.12719 -0.91382,2.04095 -2.04102,2.04101 h -7.54066 v -0.0203 c -0.0966,0.0137 -0.19402,0.0205 -0.29157,0.0203 -1.1272,-6e-5 -2.04095,-0.91382 -2.04102,-2.04101 6e-5,-1.1272 0.91382,-2.04096 2.04102,-2.04102 0.0976,2e-5 0.19501,0.007 0.29157,0.021 v -0.021 z"
       sodipodi:nodetypes="cccccccsccc" />
    <path
       id="path344"
       style="fill:#a9a9a9;fill-opacity:1;stroke:none;stroke-width:0.755905;stroke-linecap:round;stroke-dasharray:none"
       d="m 234.62208,427.69955 c 1.1272,6e-5 2.04096,0.91382 2.04102,2.04102 -7e-5,1.12719 -0.91382,2.04095 -2.04102,2.04101 h -7.54066 v -0.0203 c -0.0966,0.0137 -0.19402,0.0205 -0.29157,0.0203 -1.1272,-6e-5 -2.04095,-0.91382 -2.04102,-2.04101 6e-5,-1.1272 0.91382,-2.04096 2.04102,-2.04102 0.0976,2e-5 0.19501,0.007 0.29157,0.021 v -0.021 z"
       sodipodi:nodetypes="cccccccsccc" />
    <path
       style="fill:none;fill-opacity:1;stroke:#ff0000;stroke-width:0.944883;stroke-linecap:round;stroke-dasharray:none;stroke-dashoffset:0;stroke-opacity:1;marker-start:url(#Dot);marker-end:url(#marker348)"
       d="m 192.33178,414.01787 h 38.76927"
       id="path346"
       sodipodi:nodetypes="cc" />
    <path
       style="fill:none;fill-opacity:1;stroke:#000000;stroke-width:0.944883;stroke-linecap:round;stroke-dasharray:none;stroke-dashoffset:0;stroke-opacity:1;marker-start:url(#Dot);marker-end:url(#marker348)"
       d="m 195.95366,430.01787 h 35.14739"
       id="path349"
       sodipodi:nodetypes="cc" />
    <path
       style="fill:none;fill-opacity:1;stroke:#ffff00;stroke-width:0.944883;stroke-linecap:round;stroke-dasharray:none;stroke-dashoffset:0;stroke-opacity:1;marker-start:url(#Dot);marker-end:url(#marker348)"
       d="m 230.84453,421.74907 h 548.9714 V 226.63456"
       id="path350"
       sodipodi:nodetypes="ccc" />
    <path
       style="fill:none;fill-opacity:1;stroke:#000000;stroke-width:0.944883;stroke-linecap:round;stroke-dasharray:none;stroke-dashoffset:0;stroke-opacity:1;marker-start:url(#Dot);marker-end:url(#marker348)"
       d="m 145.82048,237.99434 v 92.37708 h 26.816 v 99.62292 h 16.70569"
       id="path351"
       sodipodi:nodetypes="ccccc" />
    <path
       style="fill:none;fill-opacity:1;stroke:#ff0000;stroke-width:0.944883;stroke-linecap:round;stroke-dasharray:none;stroke-dashoffset:0;stroke-opacity:1;marker-start:url(#Dot);marker-end:url(#marker348)"
       d="m 115.69764,238.17575 v 183.62029 h 76.28264"
       id="path352"
       sodipodi:nodetypes="ccc" />
    <text
       xml:space="preserve"
       style="font-size:8px;font-family:Cantarell;-inkscape-font-specification:Cantarell;text-align:center;writing-mode:lr-tb;direction:ltr;text-anchor:middle;fill:#ffffff;fill-opacity:1;stroke:none;stroke-width:0.944882;stroke-linecap:round;stroke-dasharray:none;stroke-dashoffset:0;stroke-opacity:1"
       x="635.67773"
       y="-398.63751"
       id="text352"
       transform="rotate(42.165682)"><tspan
         sodipodi:role="line"
         id="tspan352"
         x="635.67773"
         y="-398.63751"
         style="font-style:normal;font-variant:normal;font-weight:bold;font-stretch:normal;font-size:8px;font-family:Cantarell;-inkscape-font-specification:'Cantarell Bold';fill:#ffffff;fill-opacity:1;stroke:none">D29</tspan></text>
    <text
       xml:space="preserve"
       style="font-size:8px;font-family:Cantarell;-inkscape-font-specification:Cantarell;text-align:center;writing-mode:lr-tb;direction:ltr;text-anchor:middle;fill:#ffffff;fill-opacity:1;stroke:none;stroke-width:0.944882;stroke-linecap:round;stroke-dasharray:none;stroke-dashoffset:0;stroke-opacity:1"
       x="694.11829"
       y="-215.52328"
       id="text353"
       transform="rotate(26.487345)"><tspan
         sodipodi:role="line"
         id="tspan353"
         x="694.11829"
         y="-215.52328"
         style="font-style:normal;font-variant:normal;font-weight:bold;font-stretch:normal;font-size:8px;font-family:Cantarell;-inkscape-font-specification:'Cantarell Bold';fill:#ffffff;fill-opacity:1;stroke:none">3.3 V</tspan></text>
    <text
       xml:space="preserve"
       style="font-size:8px;font-family:Cantarell;-inkscape-font-specification:Cantarell;text-align:center;writing-mode:lr-tb;direction:ltr;text-anchor:middle;fill:#ffffff;fill-opacity:1;stroke:none;stroke-width:0.944882;stroke-linecap:round;stroke-dasharray:none;stroke-dashoffset:0;stroke-opacity:1"
       x="547.07397"
       y="361.59174"
       id="text354"
       transform="rotate(-23.302503)"><tspan
         sodipodi:role="line"
         id="tspan354"
         x="547.07397"
         y="361.59174"
         style="font-style:normal;font-variant:normal;font-weight:bold;font-stretch:normal;font-size:8px;font-family:Cantarell;-inkscape-font-specification:'Cantarell Bold';fill:#ffffff;fill-opacity:1;stroke:none">GND</tspan></text>
    <text
       xml:space="preserve"
       style="font-size:8px;font-family:Cantarell;-inkscape-font-specification:Cantarell;text-align:center;writing-mode:lr-tb;direction:ltr;text-anchor:middle;fill:#ffffff;fill-opacity:1;stroke:none;stroke-width:0.944882;stroke-linecap:round;stroke-dasharray:none;stroke-dashoffset:0;stroke-opacity:1"
       x="-30.222649"
       y="-793.43622"
       id="text355"
       transform="rotate(108.32421)"><tspan
         sodipodi:role="line"
         id="tspan355"
         x="-30.222649"
         y="-793.43622"
         style="font-style:normal;font-variant:normal;font-weight:bold;font-stretch:normal;font-size:8px;font-family:Cantarell;-inkscape-font-specification:'Cantarell Bold';fill:#ffffff;fill-opacity:1;stroke:none">D26</tspan></text>
    <text
       xml:space="preserve"
       style="font-size:8px;font-family:Cantarell;-inkscape-font-specification:Cantarell;text-align:center;writing-mode:lr-tb;direction:ltr;text-anchor:middle;fill:#ffffff;fill-opacity:1;stroke:none;stroke-width:0.944882;stroke-linecap:round;stroke-dasharray:none;stroke-dashoffset:0;stroke-opacity:1"
       x="203.31465"
       y="-766.65857"
       id="text356"
       transform="rotate(89.508131)"
       inkscape:transform-center-x="13.000001"
       inkscape:transform-center-y="0.25000001"><tspan
         sodipodi:role="line"
         id="tspan356"
         x="203.31465"
         y="-766.65857"
         style="font-style:normal;font-variant:normal;font-weight:bold;font-stretch:normal;font-size:8px;font-family:Cantarell;-inkscape-font-specification:'Cantarell Bold';fill:#ffffff;fill-opacity:1;stroke:none">GND</tspan></text>
    <path
       style="fill:none;fill-opacity:1;stroke:#ffff00;stroke-width:0.944883;stroke-linecap:round;stroke-dasharray:none;stroke-dashoffset:0;stroke-opacity:1;marker-start:url(#Dot);marker-end:url(#marker348)"
       d="M 220.23793,40.665476 H 750.11744 V 118.44723"
       id="path357"
       sodipodi:nodetypes="ccc" />
    <path
       style="fill:none;fill-opacity:1;stroke:#ff0000;stroke-width:0.944883;stroke-linecap:round;stroke-dasharray:none;stroke-dashoffset:0;stroke-opacity:1;marker-start:url(#Dot);marker-end:url(#marker348)"
       d="m 116.1963,118.5656 h 460.58305 v 77.07464"
       id="path358"
       sodipodi:nodetypes="ccc" />
    <path
       style="fill:none;fill-opacity:1;stroke:#000000;stroke-width:0.944883;stroke-linecap:round;stroke-dasharray:none;stroke-dashoffset:0;stroke-opacity:1;marker-start:url(#Dot);marker-end:url(#marker348)"
       d="M 145.74908,117.79604 V 102.2397 h 492.64549"
       id="path359"
       sodipodi:nodetypes="ccc" />
    <path
       style="fill:none;fill-opacity:1;stroke:#ff0000;stroke-width:0.944883;stroke-linecap:round;stroke-dasharray:none;stroke-dashoffset:0;stroke-opacity:1;marker-start:url(#Dot);marker-end:url(#marker348)"
       d="M 213.06993,41.59503 V 53.203418 H 724.68599 V 102.15622"
       id="path360"
       sodipodi:nodetypes="cccc" />
    <path
       style="fill:none;fill-opacity:1;stroke:#000000;stroke-width:0.944883;stroke-linecap:round;stroke-dasharray:none;stroke-dashoffset:0;stroke-opacity:1;marker-start:url(#Dot);marker-end:url(#marker348)"
       d="M 206.56026,41.532585 V 66.558606 H 639.10168 V 101.63667"
       id="path361"
       sodipodi:nodetypes="cccc" />
    <text
       xml:space="preserve"
       style="font-style:normal;font-variant:normal;font-weight:bold;font-stretch:normal;font-size:16px;font-family:Cantarell;-inkscape-font-specification:'Cantarell Bold';text-align:center;writing-mode:lr-tb;direction:ltr;text-anchor:middle;fill:#ffffff;fill-opacity:1;stroke:none;stroke-width:0.944882;stroke-linecap:round;stroke-dasharray:none;stroke-dashoffset:0;stroke-opacity:1"
       x="680.78381"
       y="181.82747"
       id="text361"><tspan
         sodipodi:role="line"
         id="tspan361"
         x="680.78381"
         y="181.82747"
         style="font-size:16px">ROUND</tspan><tspan
         sodipodi:role="line"
         x="680.78381"
         y="201.82747"
         id="tspan362"
         style="font-size:16px">STAMP</tspan><tspan
         sodipodi:role="line"
         x="680.78381"
         y="221.82747"
         id="tspan363"
         style="font-size:16px">CARRIER</tspan></text>
    <text
       xml:space="preserve"
       style="font-size:8px;font-family:Cantarell;-inkscape-font-specification:Cantarell;text-align:center;writing-mode:lr-tb;direction:ltr;text-anchor:middle;fill:#ffffff;fill-opacity:1;stroke:none;stroke-width:0.944882;stroke-linecap:round;stroke-dasharray:none;stroke-dashoffset:0;stroke-opacity:1"
       x="-199.71765"
       y="592.99829"
       id="text357"
       transform="rotate(-90.431341)"><tspan
         sodipodi:role="line"
         id="tspan357"
         x="-199.71765"
         y="592.99829"
         style="font-style:normal;font-variant:normal;font-weight:bold;font-stretch:normal;font-size:8px;font-family:Cantarell;-inkscape-font-specification:'Cantarell Bold';fill:#ffffff;fill-opacity:1;stroke:none">3.3 V</tspan></text>
    <g
       id="g398"
       transform="matrix(0.77441874,0.39775313,-0.39782814,0.77427272,230.87258,-164.35521)"
       style="stroke-width:1.14871">
      <path
         id="path363"
         style="fill:#ffffff;fill-opacity:1;stroke:#000000;stroke-width:0.868313;stroke-linecap:round;stroke-dasharray:none;stroke-dashoffset:0;stroke-opacity:1"
         d="M 654.29915,38.173233 V 48.75591 H 643.71647 V 38.173233 Z m -5.29134,9.524405 a 4.2330697,4.2330697 0 0 1 -4.23307,-4.233062 4.2330697,4.2330697 0 0 1 4.23307,-4.233071 4.2330697,4.2330697 0 0 1 4.23307,4.233071 4.2330697,4.2330697 0 0 1 -4.23307,4.233062 z" />
      <path
         id="path384"
         style="fill:#ffffff;fill-opacity:1;stroke:#000000;stroke-width:0.868313;stroke-linecap:round;stroke-dasharray:none;stroke-dashoffset:0;stroke-opacity:1"
         d="m 654.29915,215.81103 v 10.58268 h -10.58268 v -10.58268 z m -5.29134,9.52441 a 4.2330697,4.2330697 0 0 1 -4.23307,-4.23307 4.2330697,4.2330697 0 0 1 4.23307,-4.23307 4.2330697,4.2330697 0 0 1 4.23307,4.23307 4.2330697,4.2330697 0 0 1 -4.23307,4.23307 z" />
      <path
         id="path385"
         style="fill:#ffffff;fill-opacity:1;stroke:#000000;stroke-width:0.868313;stroke-linecap:round;stroke-dasharray:none;stroke-dashoffset:0;stroke-opacity:1"
         d="m 683.12184,44.41443 -3.27023,10.064724 -10.06473,-3.270228 3.27023,-10.064724 z m -7.97557,7.423133 a 4.2330697,4.2330697 0 0 1 -2.7178,-5.333971 4.2330697,4.2330697 0 0 1 5.33398,-2.7178 4.2330697,4.2330697 0 0 1 2.7178,5.333981 4.2330697,4.2330697 0 0 1 -5.33398,2.71779 z" />
      <path
         id="path386"
         style="fill:#ffffff;fill-opacity:1;stroke:#000000;stroke-width:0.868313;stroke-linecap:round;stroke-dasharray:none;stroke-dashoffset:0;stroke-opacity:1"
         d="m 628.58229,213.35801 -3.27023,10.06473 -10.06473,-3.27023 3.27023,-10.06472 z m -7.97557,7.42314 a 4.2330697,4.2330697 0 0 1 -2.7178,-5.33398 4.2330697,4.2330697 0 0 1 5.33398,-2.7178 4.2330697,4.2330697 0 0 1 2.7178,5.33398 4.2330697,4.2330697 0 0 1 -5.33398,2.7178 z" />
      <path
         id="path387"
         style="fill:#ffffff;fill-opacity:1;stroke:#000000;stroke-width:0.868313;stroke-linecap:round;stroke-dasharray:none;stroke-dashoffset:0;stroke-opacity:1"
         d="m 708.63897,59.152955 -6.22035,8.561566 -8.56156,-6.220344 6.22034,-8.561565 z m -9.87909,4.595234 a 4.2330697,4.2330697 0 0 1 -0.9365,-5.912755 4.2330697,4.2330697 0 0 1 5.91276,-0.93649 4.2330697,4.2330697 0 0 1 0.93649,5.912762 4.2330697,4.2330697 0 0 1 -5.91275,0.936483 z" />
      <path
         id="path388"
         style="fill:#ffffff;fill-opacity:1;stroke:#000000;stroke-width:0.868313;stroke-linecap:round;stroke-dasharray:none;stroke-dashoffset:0;stroke-opacity:1"
         d="m 604.22609,202.86495 -6.22035,8.56157 -8.56156,-6.22034 6.22034,-8.56157 z m -9.87909,4.59524 a 4.2330697,4.2330697 0 0 1 -0.93649,-5.91276 4.2330697,4.2330697 0 0 1 5.91276,-0.93649 4.2330697,4.2330697 0 0 1 0.93649,5.91276 4.2330697,4.2330697 0 0 1 -5.91276,0.93649 z" />
      <path
         id="path389"
         style="fill:#ffffff;fill-opacity:1;stroke:#000000;stroke-width:0.868313;stroke-linecap:round;stroke-dasharray:none;stroke-dashoffset:0;stroke-opacity:1"
         d="m 728.28853,81.143742 -8.56157,6.220339 -6.22035,-8.561569 8.56157,-6.22034 z m -10.81558,1.317518 a 4.2330697,4.2330697 0 0 1 0.93648,-5.912756 4.2330697,4.2330697 0 0 1 5.91276,0.936488 4.2330697,4.2330697 0 0 1 -0.93648,5.912764 4.2330697,4.2330697 0 0 1 -5.91276,-0.936496 z" />
      <path
         id="path390"
         style="fill:#ffffff;fill-opacity:1;stroke:#000000;stroke-width:0.868313;stroke-linecap:round;stroke-dasharray:none;stroke-dashoffset:0;stroke-opacity:1"
         d="m 584.86256,185.76443 -8.56157,6.22034 -6.22035,-8.56157 8.56157,-6.22034 z m -10.81558,1.31752 a 4.2330697,4.2330697 0 0 1 0.93648,-5.91276 4.2330697,4.2330697 0 0 1 5.91277,0.93648 4.2330697,4.2330697 0 0 1 -0.93649,5.91277 4.2330697,4.2330697 0 0 1 -5.91276,-0.93649 z" />
      <path
         id="path391"
         style="fill:#ffffff;fill-opacity:1;stroke:#000000;stroke-width:0.868313;stroke-linecap:round;stroke-dasharray:none;stroke-dashoffset:0;stroke-opacity:1"
         d="m 740.26923,108.06605 -10.06473,3.27023 -3.27022,-10.06473 10.06472,-3.270228 z m -10.69336,-2.08916 a 4.2330697,4.2330697 0 0 1 2.71779,-5.33398 4.2330697,4.2330697 0 0 1 5.33398,2.7178 4.2330697,4.2330697 0 0 1 -2.7178,5.33398 4.2330697,4.2330697 0 0 1 -5.33397,-2.7178 z" />
      <path
         id="path392"
         style="fill:#ffffff;fill-opacity:1;stroke:#000000;stroke-width:0.868313;stroke-linecap:round;stroke-dasharray:none;stroke-dashoffset:0;stroke-opacity:1"
         d="m 571.32564,162.95915 -10.06472,3.27022 -3.27023,-10.06472 10.06473,-3.27023 z m -10.69336,-2.08916 a 4.2330697,4.2330697 0 0 1 2.7178,-5.33398 4.2330697,4.2330697 0 0 1 5.33398,2.7178 4.2330697,4.2330697 0 0 1 -2.7178,5.33398 4.2330697,4.2330697 0 0 1 -5.33398,-2.7178 z" />
      <path
         id="path393"
         style="fill:#ffffff;fill-opacity:1;stroke:#000000;stroke-width:0.868313;stroke-linecap:round;stroke-dasharray:none;stroke-dashoffset:0;stroke-opacity:1"
         d="m 743.2402,137.40669 h -10.58268 v -10.58268 h 10.58268 z m -9.52441,-5.29134 a 4.2330697,4.2330697 0 0 1 4.23306,-4.23307 4.2330697,4.2330697 0 0 1 4.23308,4.23307 4.2330697,4.2330697 0 0 1 -4.23308,4.23307 4.2330697,4.2330697 0 0 1 -4.23306,-4.23307 z" />
      <path
         id="path394"
         style="fill:#ffffff;fill-opacity:1;stroke:#000000;stroke-width:0.868313;stroke-linecap:round;stroke-dasharray:none;stroke-dashoffset:0;stroke-opacity:1"
         d="m 565.71166,137.74293 h -10.58269 v -10.58268 h 10.58268 z m -9.52441,-5.29134 a 4.2330697,4.2330697 0 0 1 4.23307,-4.23307 4.2330697,4.2330697 0 0 1 4.23307,4.23307 4.2330697,4.2330697 0 0 1 -4.23307,4.23307 4.2330697,4.2330697 0 0 1 -4.23307,-4.23307 z" />
      <path
         id="path395"
         style="fill:#ffffff;fill-opacity:1;stroke:#000000;stroke-width:0.868313;stroke-linecap:round;stroke-dasharray:none;stroke-dashoffset:0;stroke-opacity:1"
         d="m 737.10825,166.22938 -10.06472,-3.27024 3.27023,-10.06472 10.06472,3.27023 z m -7.42313,-7.97557 a 4.2330697,4.2330697 0 0 1 5.33397,-2.7178 4.2330697,4.2330697 0 0 1 2.7178,5.33397 4.2330697,4.2330697 0 0 1 -5.33398,2.7178 4.2330697,4.2330697 0 0 1 -2.71779,-5.33397 z" />
      <path
         id="path396"
         style="fill:#ffffff;fill-opacity:1;stroke:#000000;stroke-width:0.868313;stroke-linecap:round;stroke-dasharray:none;stroke-dashoffset:0;stroke-opacity:1"
         d="m 568.16467,111.33628 -10.06473,-3.27024 3.27023,-10.064714 10.06473,3.270224 z m -7.42314,-7.97557 a 4.2330697,4.2330697 0 0 1 5.33398,-2.7178 4.2330697,4.2330697 0 0 1 2.7178,5.33398 4.2330697,4.2330697 0 0 1 -5.33398,2.7178 4.2330697,4.2330697 0 0 1 -2.7178,-5.33398 z" />
      <path
         id="path397"
         style="fill:#ffffff;fill-opacity:1;stroke:#000000;stroke-width:0.868313;stroke-linecap:round;stroke-dasharray:none;stroke-dashoffset:0;stroke-opacity:1"
         d="m 722.26582,191.71275 -8.56156,-6.22035 6.22034,-8.56157 8.56156,6.22034 z m -4.59523,-9.87909 a 4.2330697,4.2330697 0 0 1 5.91275,-0.9365 4.2330697,4.2330697 0 0 1 0.93649,5.91276 4.2330697,4.2330697 0 0 1 -5.91276,0.9365 4.2330697,4.2330697 0 0 1 -0.93648,-5.91276 z" />
      <path
         id="path398"
         style="fill:#ffffff;fill-opacity:1;stroke:#000000;stroke-width:0.868313;stroke-linecap:round;stroke-dasharray:none;stroke-dashoffset:0;stroke-opacity:1"
         d="m 578.44457,87.636116 -8.56156,-6.220347 6.22034,-8.561575 8.56157,6.220346 z m -4.59523,-9.879092 a 4.2330697,4.2330697 0 0 1 5.91276,-0.936498 4.2330697,4.2330697 0 0 1 0.9365,5.912767 4.2330697,4.2330697 0 0 1 -5.91277,0.936491 4.2330697,4.2330697 0 0 1 -0.93649,-5.91276 z" />
    </g>
    <text
       xml:space="preserve"
       style="font-style:normal;font-variant:normal;font-weight:bold;font-stretch:normal;font-size:36px;font-family:Cantarell;-inkscape-font-specification:'Cantarell Bold';text-align:center;writing-mode:lr-tb;direction:ltr;text-anchor:middle;fill:#000000;fill-opacity:1;stroke:none;stroke-width:0.944882;stroke-linecap:round;stroke-dasharray:none;stroke-dashoffset:0;stroke-opacity:1"
       x="354.3497"
       y="-123.31741"
       id="text398"><tspan
         sodipodi:role="line"
         id="tspan398"
         x="354.3497"
         y="-123.31741"
         style="font-size:36px;fill:#000000;fill-opacity:1">&quot;Double Rainbow&quot; Wiring Diagram</tspan></text>
    <text
       xml:space="preserve"
       style="font-size:4px;font-family:Cantarell;-inkscape-font-specification:'Cantarell Bold';text-align:center;writing-mode:lr-tb;direction:ltr;text-anchor:middle;fill:#2e2e2e;fill-opacity:1;stroke:none;stroke-width:0.755906;stroke-linecap:round;stroke-dasharray:none;stroke-dashoffset:0;stroke-opacity:1;font-weight:bold;font-style:normal;font-stretch:normal;font-variant:normal"
       x="242.72025"
       y="415.12659"
       id="text344"><tspan
         sodipodi:role="line"
         id="tspan344"
         x="242.72025"
         y="415.12659"
         style="font-size:4px;fill:#2e2e2e;fill-opacity:1;-inkscape-font-specification:'Cantarell Bold';font-family:Cantarell;font-weight:bold;font-style:normal;font-stretch:normal;font-variant:normal">VCC</tspan></text>
    <text
       xml:space="preserve"
       style="font-size:4px;font-family:Cantarell;-inkscape-font-specification:'Cantarell Bold';text-align:center;writing-mode:lr-tb;direction:ltr;text-anchor:middle;fill:#2e2e2e;fill-opacity:1;stroke:none;stroke-width:0.755906;stroke-linecap:round;stroke-dasharray:none;stroke-dashoffset:0;stroke-opacity:1;font-weight:bold;font-style:normal;font-stretch:normal;font-variant:normal"
       x="242.20224"
       y="431.12854"
       id="text345"><tspan
         sodipodi:role="line"
         id="tspan345"
         x="242.20224"
         y="431.12854"
         style="font-size:4px;fill:#2e2e2e;fill-opacity:1;-inkscape-font-specification:'Cantarell Bold';font-family:Cantarell;font-weight:bold;font-style:normal;font-stretch:normal;font-variant:normal">GND</tspan></text>
    <text
       xml:space="preserve"
       style="font-size:4px;font-family:Cantarell;-inkscape-font-specification:'Cantarell Bold';text-align:center;writing-mode:lr-tb;direction:ltr;text-anchor:middle;fill:#2e2e2e;fill-opacity:1;stroke:none;stroke-width:0.755906;stroke-linecap:round;stroke-dasharray:none;stroke-dashoffset:0;stroke-opacity:1;font-weight:bold;font-style:normal;font-stretch:normal;font-variant:normal"
       x="240.63225"
       y="423.12659"
       id="text346"><tspan
         sodipodi:role="line"
         id="tspan346"
         x="240.63225"
         y="423.12659"
         style="font-size:4px;fill:#2e2e2e;fill-opacity:1;-inkscape-font-specification:'Cantarell Bold';font-family:Cantarell;font-weight:bold;font-style:normal;font-stretch:normal;font-variant:normal">IN</tspan></text>
    <text
       xml:space="preserve"
       style="font-size:4px;font-family:Cantarell;-inkscape-font-specification:'Cantarell Bold';text-align:center;writing-mode:lr-tb;direction:ltr;text-anchor:middle;fill:#2e2e2e;fill-opacity:1;stroke:none;stroke-width:0.755906;stroke-linecap:round;stroke-dasharray:none;stroke-dashoffset:0;stroke-opacity:1;font-weight:bold;font-style:normal;font-stretch:normal;font-variant:normal"
       x="181.03447"
       y="415.12659"
       id="text339"><tspan
         sodipodi:role="line"
         id="tspan339"
         x="181.03447"
         y="415.12659"
         style="font-size:4px;fill:#2e2e2e;fill-opacity:1;-inkscape-font-specification:'Cantarell Bold';font-family:Cantarell;font-weight:bold;font-style:normal;font-stretch:normal;font-variant:normal">VCC</tspan></text>
    <text
       xml:space="preserve"
       style="font-size:4px;font-family:Cantarell;-inkscape-font-specification:'Cantarell Bold';text-align:center;writing-mode:lr-tb;direction:ltr;text-anchor:middle;fill:#2e2e2e;fill-opacity:1;stroke:none;stroke-width:0.755906;stroke-linecap:round;stroke-dasharray:none;stroke-dashoffset:0;stroke-opacity:1;font-weight:bold;font-style:normal;font-stretch:normal;font-variant:normal"
       x="180.51646"
       y="431.12854"
       id="text340"><tspan
         sodipodi:role="line"
         id="tspan340"
         x="180.51646"
         y="431.12854"
         style="font-size:4px;fill:#2e2e2e;fill-opacity:1;-inkscape-font-specification:'Cantarell Bold';font-family:Cantarell;font-weight:bold;font-style:normal;font-stretch:normal;font-variant:normal">GND</tspan></text>
    <text
       xml:space="preserve"
       style="font-size:4px;font-family:Cantarell;-inkscape-font-specification:'Cantarell Bold';text-align:center;writing-mode:lr-tb;direction:ltr;text-anchor:middle;fill:#2e2e2e;fill-opacity:1;stroke:none;stroke-width:0.755906;stroke-linecap:round;stroke-dasharray:none;stroke-dashoffset:0;stroke-opacity:1;font-weight:bold;font-style:normal;font-stretch:normal;font-variant:normal"
       x="181.03447"
       y="423.12659"
       id="text341"><tspan
         sodipodi:role="line"
         id="tspan341"
         x="181.03447"
         y="423.12659"
         style="font-size:4px;fill:#2e2e2e;fill-opacity:1;-inkscape-font-specification:'Cantarell Bold';font-family:Cantarell;font-weight:bold;font-style:normal;font-stretch:normal;font-variant:normal">OUT</tspan></text>
  </g>
</svg>
