<?xml version="1.0" encoding="UTF-8" standalone="no"?>
<!-- Created with Inkscape (http://www.inkscape.org/) -->

<svg
   width="420mm"
   height="594mm"
   viewBox="0 0 1587.4016 2245.0394"
   version="1.1"
   id="svg1"
   inkscape:version="1.4 (e7c3feb100, 2024-10-09)"
   sodipodi:docname="replacement-base.svg"
   xmlns:inkscape="http://www.inkscape.org/namespaces/inkscape"
   xmlns:sodipodi="http://sodipodi.sourceforge.net/DTD/sodipodi-0.dtd"
   xmlns="http://www.w3.org/2000/svg"
   xmlns:svg="http://www.w3.org/2000/svg">
  <sodipodi:namedview
     id="namedview1"
     pagecolor="#ffffff"
     bordercolor="#cccccc"
     borderopacity="1"
     inkscape:showpageshadow="0"
     inkscape:pageopacity="1"
     inkscape:pagecheckerboard="0"
     inkscape:deskcolor="#d1d1d1"
     inkscape:document-units="px"
     inkscape:zoom="2.0000001"
     inkscape:cx="367.24998"
     inkscape:cy="942.99995"
     inkscape:window-width="1360"
     inkscape:window-height="1070"
     inkscape:window-x="26"
     inkscape:window-y="23"
     inkscape:window-maximized="0"
     inkscape:current-layer="layer1"
     showguides="false">
    <sodipodi:guide
       position="244.83594,1246.7532"
       orientation="1,0"
       id="guide71"
       inkscape:locked="false" />
  </sodipodi:namedview>
  <defs
     id="defs1" />
  <g
     inkscape:label="Layer 1"
     inkscape:groupmode="layer"
     id="layer1">
    <path
       style="fill:none;fill-opacity:1;stroke:#000000;stroke-width:1.88977;stroke-linecap:round;stroke-dasharray:1.88977, 11.3386;stroke-dashoffset:0;stroke-opacity:0.5"
       d="M 323.63198,435.51238 V 788.01035"
       id="path49"
       sodipodi:nodetypes="cc" />
    <path
       style="fill:none;fill-opacity:1;stroke:#000000;stroke-width:1.88976;stroke-linecap:round;stroke-dasharray:1.88976, 11.3386;stroke-dashoffset:0;stroke-opacity:0.5"
       d="M 312.2948,443.48687 V 779.87858"
       id="path50"
       sodipodi:nodetypes="cc" />
    <path
       style="fill:none;fill-opacity:1;stroke:#000000;stroke-width:1.88978;stroke-linecap:round;stroke-dasharray:1.88978, 11.3386;stroke-dashoffset:0;stroke-opacity:0.5"
       d="M 336.97195,254.32215 V 971.01031"
       id="path3"
       sodipodi:nodetypes="cc" />
    <path
       style="fill:none;fill-opacity:1;stroke:#000000;stroke-width:1.88977;stroke-linecap:round;stroke-dasharray:1.88977, 11.3386;stroke-dashoffset:0;stroke-opacity:0.5"
       d="M 348.6279,259.2949 V 962.01032"
       id="path6"
       sodipodi:nodetypes="cc" />
    <path
       id="path7"
       style="fill:#cccccc;fill-opacity:1;stroke:#000000;stroke-width:1.88976;stroke-linecap:round;stroke-dasharray:none"
       d="M 1535.9147,547.18197 A 386.45671,386.45671 0 0 1 1149.458,933.6387 386.45671,386.45671 0 0 1 763.00131,547.18197 386.45671,386.45671 0 0 1 1149.458,160.72529 386.45671,386.45671 0 0 1 1535.9147,547.18197 Z" />
    <path
       id="path71"
       style="fill:#d9d9d9;fill-opacity:1;stroke:#000000;stroke-width:1.88976;stroke-linecap:round;stroke-dasharray:none"
       d="M 1528.3557,547.18198 A 378.89771,378.89771 0 0 1 1149.4581,926.07968 378.89771,378.89771 0 0 1 770.56035,547.18198 378.89771,378.89771 0 0 1 1149.4581,168.28429 378.89771,378.89771 0 0 1 1528.3557,547.18198 Z" />
    <path
       id="path70"
       style="fill:#e5e5e5;fill-opacity:1;stroke:#000000;stroke-width:1.88976;stroke-linecap:round;stroke-dasharray:none"
       d="M 1522.6863,547.18198 A 373.22837,373.22837 0 0 1 1149.458,920.41034 373.22837,373.22837 0 0 1 776.22966,547.18198 373.22837,373.22837 0 0 1 1149.458,173.95363 373.22837,373.22837 0 0 1 1522.6863,547.18198 Z" />
    <path
       id="path68"
       style="fill:#ffffff;fill-opacity:1;stroke:#000000;stroke-width:1.88976;stroke-linecap:round;stroke-dasharray:none"
       d="M 1511.3477,547.18198 A 361.88977,361.88977 0 0 1 1149.458,909.07174 361.88977,361.88977 0 0 1 787.56824,547.18198 361.88977,361.88977 0 0 1 1149.458,185.29223 361.88977,361.88977 0 0 1 1511.3477,547.18198 Z" />
    <path
       id="path69"
       style="fill:#f2f2f2;fill-opacity:1;stroke:#000000;stroke-width:1.88976;stroke-linecap:round;stroke-dasharray:none"
       d="M 1517.0171,547.18198 A 367.5591,367.5591 0 0 1 1149.458,914.74107 367.5591,367.5591 0 0 1 781.89892,547.18198 367.5591,367.5591 0 0 1 1149.458,179.6229 367.5591,367.5591 0 0 1 1517.0171,547.18198 Z" />
    <path
       id="path4"
       style="fill:#e5e5e5;fill-opacity:1;stroke:#000000;stroke-width:1.88976;stroke-linecap:round;stroke-dasharray:none"
       d="M 1496.2296,547.18198 A 346.77167,346.77167 0 0 1 1149.458,893.95364 346.77167,346.77167 0 0 1 802.68635,547.18198 346.77167,346.77167 0 0 1 1149.458,200.41033 346.77167,346.77167 0 0 1 1496.2296,547.18198 Z" />
    <path
       id="path67"
       style="fill:#d9d9d9;fill-opacity:1;stroke:#000000;stroke-width:1.88975;stroke-linecap:round;stroke-dasharray:none"
       d="M 1471.6627,547.18199 A 322.20475,322.20475 0 0 1 1149.4578,869.38672 322.20475,322.20475 0 0 1 827.25325,547.18199 322.20475,322.20475 0 0 1 1149.4578,224.97725 322.20475,322.20475 0 0 1 1471.6627,547.18199 Z" />
    <path
       id="path66"
       style="fill:#cccccc;fill-opacity:1;stroke:#000000;stroke-width:1.88975;stroke-linecap:round;stroke-dasharray:none"
       d="m 1447.0958,547.18198 a 297.63781,297.63781 0 0 1 -297.6379,297.6378 297.63781,297.63781 0 0 1 -297.6377,-297.6378 297.63781,297.63781 0 0 1 297.6377,-297.6378 297.63781,297.63781 0 0 1 297.6379,297.6378 z" />
    <path
       id="path5"
       style="fill:#999999;fill-opacity:1;stroke:#000000;stroke-width:1.88976;stroke-linecap:round;stroke-dasharray:none"
       d="M 1367.7257,547.18198 A 218.26772,218.26772 0 0 1 1149.4579,765.4497 218.26772,218.26772 0 0 1 931.19026,547.18198 218.26772,218.26772 0 0 1 1149.4579,328.91427 218.26772,218.26772 0 0 1 1367.7257,547.18198 Z" />
    <path
       id="path64"
       style="fill:#a6a6a6;fill-opacity:1;stroke:#000000;stroke-width:1.88976;stroke-linecap:round;stroke-dasharray:none"
       d="M 1328.0407,547.18198 A 178.5826,178.5826 0 0 1 1149.4582,725.76458 178.5826,178.5826 0 0 1 970.87534,547.18198 178.5826,178.5826 0 0 1 1149.4582,368.5994 178.5826,178.5826 0 0 1 1328.0407,547.18198 Z" />
    <path
       id="path63"
       style="fill:#b2b2b2;fill-opacity:1;stroke:#000000;stroke-width:1.88976;stroke-linecap:round;stroke-dasharray:none"
       d="M 1320.4816,547.18198 A 171.02353,171.02353 0 0 1 1149.4581,718.20551 171.02353,171.02353 0 0 1 978.43439,547.18198 171.02353,171.02353 0 0 1 1149.4581,376.15846 171.02353,171.02353 0 0 1 1320.4816,547.18198 Z" />
    <path
       id="path62"
       style="fill:#bfbfbf;fill-opacity:1;stroke:#000000;stroke-width:1.88976;stroke-linecap:round;stroke-dasharray:none"
       d="M 1312.9227,547.18198 A 163.46458,163.46458 0 0 1 1149.4581,710.64656 163.46458,163.46458 0 0 1 985.99334,547.18198 163.46458,163.46458 0 0 1 1149.4581,383.71741 163.46458,163.46458 0 0 1 1312.9227,547.18198 Z" />
    <path
       id="path61"
       style="fill:#cccccc;fill-opacity:1;stroke:#000000;stroke-width:1.88976;stroke-linecap:round;stroke-dasharray:none"
       d="M 1305.3636,547.18198 A 155.90552,155.90552 0 0 1 1149.4581,703.08749 155.90552,155.90552 0 0 1 993.55245,547.18198 155.90552,155.90552 0 0 1 1149.4581,391.27647 155.90552,155.90552 0 0 1 1305.3636,547.18198 Z" />
    <path
       id="path60"
       style="fill:#d9d9d9;fill-opacity:1;stroke:#000000;stroke-width:1.88976;stroke-linecap:round;stroke-dasharray:none"
       d="M 1297.8045,547.18198 A 148.34642,148.34642 0 0 1 1149.4581,695.5284 148.34642,148.34642 0 0 1 1001.1116,547.18198 148.34642,148.34642 0 0 1 1149.4581,398.83557 148.34642,148.34642 0 0 1 1297.8045,547.18198 Z" />
    <path
       id="path59"
       style="fill:#e5e5e5;fill-opacity:1;stroke:#000000;stroke-width:1.88976;stroke-linecap:round;stroke-dasharray:none"
       d="M 1290.2454,547.18197 A 140.78736,140.78736 0 0 1 1149.458,687.96934 140.78736,140.78736 0 0 1 1008.6706,547.18197 140.78736,140.78736 0 0 1 1149.458,406.39462 140.78736,140.78736 0 0 1 1290.2454,547.18197 Z" />
    <path
       id="path58"
       style="fill:#f2f2f2;fill-opacity:1;stroke:#000000;stroke-width:1.88976;stroke-linecap:round;stroke-dasharray:none"
       d="M 1282.6864,547.18198 A 133.22836,133.22836 0 0 1 1149.458,680.41034 133.22836,133.22836 0 0 1 1016.2296,547.18198 133.22836,133.22836 0 0 1 1149.458,413.95363 133.22836,133.22836 0 0 1 1282.6864,547.18198 Z" />
    <path
       id="path1"
       style="fill:#ffffff;stroke:#000000;stroke-width:1.88976;stroke-linecap:round;stroke-dasharray:none"
       d="M 1275.1273,547.18198 A 125.6693,125.6693 0 0 1 1149.458,672.85128 125.6693,125.6693 0 0 1 1023.7887,547.18198 125.6693,125.6693 0 0 1 1149.458,421.51269 125.6693,125.6693 0 0 1 1275.1273,547.18198 Z" />
    <path
       id="path13"
       style="fill:none;stroke:#000000;stroke-width:1.88976;stroke-linecap:round;stroke-dasharray:1.88976, 5.66928;stroke-dashoffset:0"
       d="M 931.19027,547.18199 V 143.31134 h 436.53543 v 403.87065"
       sodipodi:nodetypes="cccc" />
    <text
       xml:space="preserve"
       style="font-size:24px;font-family:Cantarell;-inkscape-font-specification:Cantarell;text-align:start;writing-mode:lr-tb;direction:ltr;text-anchor:start;fill:none;fill-opacity:1;stroke:#000000;stroke-width:1.88976;stroke-linecap:round;stroke-dasharray:none;stroke-opacity:1"
       x="1107.5901"
       y="129.50119"
       id="text14"><tspan
         sodipodi:role="line"
         id="tspan14"
         x="1107.5901"
         y="129.50119">116 mm</tspan></text>
    <path
       id="path8"
       style="fill:none;stroke:#000000;stroke-width:1.88976;stroke-linecap:round;stroke-dasharray:1.88976, 5.66928;stroke-dashoffset:0"
       d="m 1023.7887,547.18199 v 473.93121 h 251.3386 V 547.18199"
       sodipodi:nodetypes="cccc" />
    <text
       xml:space="preserve"
       style="font-size:24px;font-family:Cantarell;-inkscape-font-specification:Cantarell;text-align:start;writing-mode:lr-tb;direction:ltr;text-anchor:start;fill:none;fill-opacity:1;stroke:#000000;stroke-width:1.88976;stroke-linecap:round;stroke-dasharray:none;stroke-opacity:1"
       x="1107.5901"
       y="1047.5012"
       id="text8"><tspan
         sodipodi:role="line"
         x="1107.5901"
         y="1047.5012"
         id="tspan57">67 mm</tspan></text>
    <path
       id="path9"
       style="fill:none;stroke:#000000;stroke-width:1.88975;stroke-linecap:round;stroke-dasharray:1.88975, 5.66928;stroke-dashoffset:0"
       d="M 802.68634,549.07175 V 1071.0539 H 1496.2296 V 549.07175"
       sodipodi:nodetypes="cccc" />
    <text
       xml:space="preserve"
       style="font-size:24px;font-family:Cantarell;-inkscape-font-specification:Cantarell;text-align:start;writing-mode:lr-tb;direction:ltr;text-anchor:start;fill:none;fill-opacity:1;stroke:#000000;stroke-width:1.88976;stroke-linecap:round;stroke-dasharray:none;stroke-opacity:1"
       x="1107.5901"
       y="1093.5012"
       id="text9"><tspan
         sodipodi:role="line"
         id="tspan9"
         x="1107.5901"
         y="1093.5012">184 mm</tspan></text>
    <path
       id="path10"
       style="fill:none;stroke:#000000;stroke-width:1.88977;stroke-linecap:round;stroke-dasharray:1.88977, 5.66928;stroke-dashoffset:0"
       d="M 763.0013,547.18198 V 98.95256 h 772.9134 v 448.22942"
       sodipodi:nodetypes="cccc" />
    <text
       xml:space="preserve"
       style="font-size:24px;font-family:Cantarell;-inkscape-font-specification:Cantarell;text-align:start;writing-mode:lr-tb;direction:ltr;text-anchor:start;fill:none;fill-opacity:1;stroke:#000000;stroke-width:1.88976;stroke-linecap:round;stroke-dasharray:none;stroke-opacity:1"
       x="1107.5901"
       y="89.50119"
       id="text10"><tspan
         sodipodi:role="line"
         id="tspan10"
         x="1107.5901"
         y="89.50119">205 mm</tspan></text>
    <path
       id="path11"
       style="fill:none;stroke:#000000;stroke-width:1.88976;stroke-linecap:round;stroke-dasharray:1.88976, 5.66928;stroke-dashoffset:0"
       d="m 1107.3163,878.27798 v 73.47772 h 84.2835 v -73.47772"
       sodipodi:nodetypes="cccc" />
    <text
       xml:space="preserve"
       style="font-size:24px;font-family:Cantarell;-inkscape-font-specification:Cantarell;text-align:start;writing-mode:lr-tb;direction:ltr;text-anchor:start;fill:none;fill-opacity:1;stroke:#000000;stroke-width:1.88976;stroke-linecap:round;stroke-dasharray:none;stroke-opacity:1"
       x="1103.33"
       y="979.50122"
       id="text12"><tspan
         sodipodi:role="line"
         id="tspan12"
         x="1103.33"
         y="979.50122">22.8 mm</tspan></text>
    <path
       id="rect1"
       style="fill:none;stroke:#000000;stroke-width:1.88976;stroke-linecap:round"
       d="m 337.81017,244.67825 v 5.6701 h 10.29744 v 5.66929 h 10.29743 v 712.44094 h -10.29743 v 5.66929 h -10.29744 v 5.66849 h -11.25319 v 5.6701 h -10.02817 v 5.66929 h -10.29743 v 7.55768 h -10.29743 v -5.66792 h -10.29744 v -5.66929 h -10.29744 v -5.66929 h -10.29743 v -5.66929 h -11.32621 v -15.11892 h 11.1981 v -26.07874 h 10.37529 v -24.11876 h 8.2882 v -80.29069 h 43.59247 V 789.7474 h -10.4476 v -7.55905 h -10.44761 v -7.55906 h -10.4476 v -7.55905 h -10.44761 v -7.55906 h -10.4476 v -7.55905 h -10.44761 v -7.55906 h -10.4476 v -7.55905 h -10.4476 V 487.63843 h 10.4476 v -7.55906 h 10.4476 v -7.55906 h 10.44761 v -7.55905 h 10.4476 v -7.55906 h 10.44761 v -7.55905 h 10.4476 v -7.55906 h 10.44761 v -7.55905 h 10.4476 v -39.43262 h -43.59247 v -81.73228 h -8.23795 v -23.90551 h -10.29743 v -26.07874 h -11.32621 v -15.25715 h 11.32621 v -5.66929 h 10.29743 v -5.66929 h 10.29744 v -5.66929 h 10.29744 v -5.67048 h 10.29743 v 7.70008 h 10.29743 v 5.66929 h 10.29615 v 5.66849 z"
       sodipodi:nodetypes="ccccccccccccccccccccccccccccccccccccccccccccccccccccccccccccccccccccccccccccccccccccccccc" />
    <path
       id="path14"
       style="fill:none;stroke:#000000;stroke-width:1.88977;stroke-linecap:round;stroke-dasharray:1.88977, 5.66927;stroke-dashoffset:0"
       d="M 287.55134,998.69342 H 29.793099 V 225.78002 H 288.32305"
       sodipodi:nodetypes="cccc" />
    <text
       xml:space="preserve"
       style="font-size:24px;font-family:Cantarell;-inkscape-font-specification:Cantarell;text-align:start;writing-mode:lr-tb;direction:ltr;text-anchor:start;fill:none;fill-opacity:1;stroke:#000000;stroke-width:1.88976;stroke-linecap:round;stroke-dasharray:none;stroke-opacity:1"
       x="-655.94073"
       y="22.431229"
       id="text15"
       transform="rotate(-90)"><tspan
         sodipodi:role="line"
         id="tspan15"
         x="-655.94073"
         y="22.431229">205 mm</tspan></text>
    <path
       id="path15"
       style="fill:none;stroke:#000000;stroke-width:1.88977;stroke-linecap:round;stroke-dasharray:1.88977, 5.66929;stroke-dashoffset:0"
       d="M 348.53522,250.34696 H 619.94866 V 974.12648 H 348.53522"
       sodipodi:nodetypes="cccc" />
    <text
       xml:space="preserve"
       style="font-size:24px;font-family:Cantarell;-inkscape-font-specification:Cantarell;text-align:start;writing-mode:lr-tb;direction:ltr;text-anchor:start;fill:none;fill-opacity:1;stroke:#000000;stroke-width:1.88976;stroke-linecap:round;stroke-dasharray:none;stroke-opacity:1"
       x="570.50073"
       y="-628.34473"
       id="text16"
       transform="rotate(90)"><tspan
         sodipodi:role="line"
         id="tspan16"
         x="570.50073"
         y="-628.34473">192 mm</tspan></text>
    <path
       id="path17"
       style="fill:none;stroke:#000000;stroke-width:1.88976;stroke-linecap:round;stroke-dasharray:1.88976, 5.66928;stroke-dashoffset:0"
       d="m 355.75936,563.26071 -0.70197,-18.84818 h -54.8032 v 18.84818"
       sodipodi:nodetypes="cccc" />
    <text
       xml:space="preserve"
       style="font-size:14px;font-family:Cantarell;-inkscape-font-specification:Cantarell;text-align:start;writing-mode:lr-tb;direction:ltr;text-anchor:start;fill:none;fill-opacity:1;stroke:#000000;stroke-width:1.88976;stroke-linecap:round;stroke-dasharray:none;stroke-opacity:1"
       x="311.04791"
       y="536.28278"
       id="text17"><tspan
         sodipodi:role="line"
         id="tspan17"
         x="311.04791"
         y="536.28278"
         style="font-size:14px">15 mm</tspan></text>
    <path
       id="path18"
       style="fill:none;stroke:#000000;stroke-width:1.88976;stroke-linecap:round;stroke-dasharray:1.88976, 5.66928;stroke-dashoffset:0"
       d="m 357.64912,659.46695 h 73.47772 v -92.59843 h -73.47772"
       sodipodi:nodetypes="cccc" />
    <path
       id="path19"
       style="fill:none;stroke:#000000;stroke-width:1.88977;stroke-linecap:round;stroke-dasharray:1.88977, 5.66927;stroke-dashoffset:0"
       d="m 241.39584,960.89813 h -75.7913 V 263.57531 h 76.01821"
       sodipodi:nodetypes="cccc" />
    <text
       xml:space="preserve"
       style="font-size:24px;font-family:Cantarell;-inkscape-font-specification:Cantarell;text-align:start;writing-mode:lr-tb;direction:ltr;text-anchor:start;fill:none;fill-opacity:1;stroke:#000000;stroke-width:1.88976;stroke-linecap:round;stroke-dasharray:none;stroke-opacity:1"
       x="-653.93671"
       y="160.43123"
       id="text19"
       transform="rotate(-90)"><tspan
         sodipodi:role="line"
         id="tspan19"
         x="-653.93671"
         y="160.43123">185 mm</tspan></text>
    <path
       id="path21"
       style="fill:none;stroke:#000000;stroke-width:1.88976;stroke-linecap:round;stroke-dasharray:1.88976, 5.66928;stroke-dashoffset:0"
       d="m 321.09795,433.34716 h -88.8189 v 9.91355"
       sodipodi:nodetypes="ccc" />
    <text
       xml:space="preserve"
       style="font-size:14px;font-family:Cantarell;-inkscape-font-specification:Cantarell;text-align:start;writing-mode:lr-tb;direction:ltr;text-anchor:start;fill:none;fill-opacity:1;stroke:#000000;stroke-width:1.88976;stroke-linecap:round;stroke-dasharray:none;stroke-opacity:1"
       x="212.82756"
       y="428.28278"
       id="text21"><tspan
         sodipodi:role="line"
         id="tspan21"
         x="212.82756"
         y="428.28278"
         style="font-size:14px">24 mm</tspan></text>
    <path
       id="path22"
       style="fill:none;stroke:#000000;stroke-width:1.88976;stroke-linecap:round;stroke-dasharray:1.88976, 5.66928;stroke-dashoffset:0"
       d="m 322.38929,404.46005 h -46.11024 v -9.72409"
       sodipodi:nodetypes="ccc" />
    <text
       xml:space="preserve"
       style="font-size:14px;font-family:Cantarell;-inkscape-font-specification:Cantarell;text-align:start;writing-mode:lr-tb;direction:ltr;text-anchor:start;fill:none;fill-opacity:1;stroke:#000000;stroke-width:1.88976;stroke-linecap:round;stroke-dasharray:none;stroke-opacity:1"
       x="263.77017"
       y="418.28278"
       id="text22"><tspan
         sodipodi:role="line"
         id="tspan22"
         x="263.77017"
         y="418.28278"
         style="font-size:14px">12.7 mm</tspan></text>
    <path
       id="path23"
       style="fill:none;stroke:#000000;stroke-width:1.88976;stroke-linecap:round;stroke-dasharray:1.88976, 5.66928;stroke-dashoffset:0"
       d="M 276.14588,332.33128 H 349.6236 V 264.67773 H 244.87469"
       sodipodi:nodetypes="cccc" />
    <text
       xml:space="preserve"
       style="font-size:14px;font-family:Cantarell;-inkscape-font-specification:Cantarell;text-align:start;writing-mode:lr-tb;direction:ltr;text-anchor:start;fill:none;fill-opacity:1;stroke:#000000;stroke-width:1.88976;stroke-linecap:round;stroke-dasharray:none;stroke-opacity:1"
       x="274.2645"
       y="-354.81714"
       id="text23"
       transform="rotate(90)"><tspan
         sodipodi:role="line"
         id="tspan23"
         x="274.2645"
         y="-354.81714"
         style="font-size:14px">18.4 mm</tspan></text>
    <path
       id="path24"
       style="fill:none;stroke:#000000;stroke-width:1.88975;stroke-linecap:round;stroke-dasharray:1.88975, 5.66927;stroke-dashoffset:0"
       d="M 394.78678,395.05737 V 332.221 h -44.64567"
       sodipodi:nodetypes="ccc" />
    <path
       id="path26"
       style="fill:none;stroke:#000000;stroke-width:1.88976;stroke-linecap:round;stroke-dasharray:1.88976, 5.66928;stroke-dashoffset:0"
       d="m 230.09008,485.60757 h -31.78281 v 251.33859 h 31.78281"
       sodipodi:nodetypes="cccc" />
    <text
       xml:space="preserve"
       style="font-size:24px;font-family:Cantarell;-inkscape-font-specification:Cantarell;text-align:start;writing-mode:lr-tb;direction:ltr;text-anchor:start;fill:none;fill-opacity:1;stroke:#000000;stroke-width:1.88976;stroke-linecap:round;stroke-dasharray:none;stroke-opacity:1"
       x="-648.21283"
       y="190.79703"
       id="text26"
       transform="rotate(-90)"><tspan
         sodipodi:role="line"
         id="tspan26"
         x="-648.21283"
         y="190.79703">67 mm</tspan></text>
    <text
       xml:space="preserve"
       style="font-size:14px;font-family:Cantarell;-inkscape-font-specification:Cantarell;text-align:start;writing-mode:lr-tb;direction:ltr;text-anchor:start;fill:none;fill-opacity:1;stroke:#000000;stroke-width:1.88976;stroke-linecap:round;stroke-dasharray:none;stroke-opacity:1"
       x="591.97174"
       y="-440.46274"
       id="text29"
       transform="rotate(90)"><tspan
         sodipodi:role="line"
         id="tspan29"
         x="591.97174"
         y="-440.46274"
         style="font-size:14px">25 mm</tspan></text>
    <path
       id="path29"
       style="fill:none;stroke:#000000;stroke-width:1.88977;stroke-linecap:round;stroke-dasharray:1.88977, 5.66927;stroke-dashoffset:0"
       d="m 337.66147,395.96901 h 179.9416 V 832.50443 H 337.12274"
       sodipodi:nodetypes="cccc" />
    <text
       xml:space="preserve"
       style="font-size:24px;font-family:Cantarell;-inkscape-font-specification:Cantarell;text-align:start;writing-mode:lr-tb;direction:ltr;text-anchor:start;fill:none;fill-opacity:1;stroke:#000000;stroke-width:1.88976;stroke-linecap:round;stroke-dasharray:none;stroke-opacity:1"
       x="572.00073"
       y="-531.77277"
       id="text30"
       transform="rotate(90)"><tspan
         sodipodi:role="line"
         id="tspan30"
         x="572.00073"
         y="-531.77277">116 mm</tspan></text>
    <path
       id="path30"
       style="fill:none;stroke:#000000;stroke-width:1.88977;stroke-linecap:round;stroke-dasharray:1.88977, 5.66927;stroke-dashoffset:0"
       d="M 298.27013,433.65406 H 445.97576 V 790.81942 H 297.87234"
       sodipodi:nodetypes="cccc" />
    <text
       xml:space="preserve"
       style="font-size:24px;font-family:Cantarell;-inkscape-font-specification:Cantarell;text-align:start;writing-mode:lr-tb;direction:ltr;text-anchor:start;fill:none;fill-opacity:1;stroke:#000000;stroke-width:1.88976;stroke-linecap:round;stroke-dasharray:none;stroke-opacity:1"
       x="574.30475"
       y="-467.77277"
       id="text31"
       transform="rotate(90)"><tspan
         sodipodi:role="line"
         id="tspan31"
         x="574.30475"
         y="-467.77277">95 mm</tspan></text>
    <path
       style="fill:none;fill-opacity:1;stroke:#000000;stroke-width:1.88976;stroke-linecap:round;stroke-dasharray:1.88976, 11.3386;stroke-dashoffset:0;stroke-opacity:0.5"
       d="M 325.3369,831.49062 V 979.86489"
       id="path31"
       sodipodi:nodetypes="cc" />
    <text
       xml:space="preserve"
       style="font-size:48px;font-family:Cantarell;-inkscape-font-specification:Cantarell;text-align:start;writing-mode:lr-tb;direction:ltr;text-anchor:start;fill:#000000;fill-opacity:1;stroke:none;stroke-width:1.88976;stroke-linecap:round;stroke-dasharray:1.88976, 1.88976;stroke-dashoffset:0;stroke-opacity:1"
       x="595.94086"
       y="51.945808"
       id="text20"><tspan
         sodipodi:role="line"
         id="tspan20"
         x="595.94086"
         y="51.945808">Replacement Base</tspan></text>
    <path
       style="fill:none;fill-opacity:1;stroke:#000000;stroke-width:1.88976;stroke-linecap:round;stroke-dasharray:1.88976, 11.3386;stroke-dashoffset:0;stroke-opacity:0.5"
       d="M 316.2948,830.22167 V 984.23552"
       id="path32"
       sodipodi:nodetypes="cc" />
    <path
       style="fill:none;fill-opacity:1;stroke:#000000;stroke-width:1.88976;stroke-linecap:round;stroke-dasharray:1.88976, 11.3386;stroke-dashoffset:0;stroke-opacity:0.5"
       d="M 306.95622,830.22167 V 991.18995"
       id="path33"
       sodipodi:nodetypes="cc" />
    <path
       style="fill:none;fill-opacity:1;stroke:#000000;stroke-width:1.88976;stroke-linecap:round;stroke-dasharray:1.88976, 11.3386;stroke-dashoffset:0;stroke-opacity:0.5"
       d="M 295.61764,830.22167 V 992.31846"
       id="path34"
       sodipodi:nodetypes="cc" />
    <path
       style="fill:none;fill-opacity:1;stroke:#000000;stroke-width:1.88976;stroke-linecap:round;stroke-dasharray:1.88976, 11.3386;stroke-dashoffset:0;stroke-opacity:0.5"
       d="M 286.27905,830.22167 V 986.25048"
       id="path35"
       sodipodi:nodetypes="cc" />
    <path
       style="fill:none;fill-opacity:1;stroke:#000000;stroke-width:1.88976;stroke-linecap:round;stroke-dasharray:1.88976, 11.3386;stroke-dashoffset:0;stroke-opacity:0.5"
       d="m 274.94047,938.00537 v 47.78155"
       id="path36"
       sodipodi:nodetypes="cc" />
    <path
       style="fill:none;fill-opacity:1;stroke:#000000;stroke-width:1.88976;stroke-linecap:round;stroke-dasharray:1.88976, 11.3386;stroke-dashoffset:0;stroke-opacity:0.5"
       d="M 325.63197,246.85829 V 395.94702"
       id="path40"
       sodipodi:nodetypes="cc" />
    <path
       style="fill:none;fill-opacity:1;stroke:#000000;stroke-width:1.88976;stroke-linecap:round;stroke-dasharray:1.88976, 11.3386;stroke-dashoffset:0;stroke-opacity:0.5"
       d="M 316.2948,241.67571 V 394.54308"
       id="path41"
       sodipodi:nodetypes="cc" />
    <path
       style="fill:none;fill-opacity:1;stroke:#000000;stroke-width:1.88976;stroke-linecap:round;stroke-dasharray:1.88976, 11.3386;stroke-dashoffset:0;stroke-opacity:0.5"
       d="M 304.95622,232.87026 V 394.54308"
       id="path42"
       sodipodi:nodetypes="cc" />
    <path
       style="fill:none;fill-opacity:1;stroke:#000000;stroke-width:1.88976;stroke-linecap:round;stroke-dasharray:1.88976, 11.3386;stroke-dashoffset:0;stroke-opacity:0.5"
       d="M 295.61764,233.94889 V 394.89407"
       id="path43"
       sodipodi:nodetypes="cc" />
    <path
       style="fill:none;fill-opacity:1;stroke:#000000;stroke-width:1.88976;stroke-linecap:round;stroke-dasharray:1.88976, 11.3386;stroke-dashoffset:0;stroke-opacity:0.5"
       d="m 286.27905,239.40329 v 91.26048"
       id="path44"
       sodipodi:nodetypes="cc" />
    <path
       style="fill:none;fill-opacity:1;stroke:#000000;stroke-width:1.88976;stroke-linecap:round;stroke-dasharray:1.88976, 11.3386;stroke-dashoffset:0;stroke-opacity:0.5"
       d="M 274.94047,245.17785 V 313.4655"
       id="path45"
       sodipodi:nodetypes="cc" />
    <path
       style="fill:none;fill-opacity:1;stroke:#000000;stroke-width:1.88976;stroke-linecap:round;stroke-dasharray:1.88976, 11.3386;stroke-dashoffset:0;stroke-opacity:0.5"
       d="m 265.60189,250.9293 v 38.6692"
       id="path46"
       sodipodi:nodetypes="cc" />
    <path
       style="fill:none;fill-opacity:1;stroke:#000000;stroke-width:1.88976;stroke-linecap:round;stroke-dasharray:1.88976, 11.3386;stroke-dashoffset:0;stroke-opacity:0.5"
       d="M 300.95621,451.46543 V 773.16105"
       id="path51"
       sodipodi:nodetypes="cc" />
    <path
       style="fill:none;fill-opacity:1;stroke:#000000;stroke-width:1.88976;stroke-linecap:round;stroke-dasharray:1.88976, 11.3386;stroke-dashoffset:0;stroke-opacity:0.5"
       d="M 289.61764,457.44533 V 766.79712"
       id="path52"
       sodipodi:nodetypes="cc" />
    <path
       style="fill:none;fill-opacity:1;stroke:#000000;stroke-width:1.88976;stroke-linecap:round;stroke-dasharray:1.88976, 11.3386;stroke-dashoffset:0;stroke-opacity:0.5"
       d="M 278.27905,465.42857 V 761.49381"
       id="path53"
       sodipodi:nodetypes="cc" />
    <path
       style="fill:none;fill-opacity:1;stroke:#000000;stroke-width:1.88976;stroke-linecap:round;stroke-dasharray:1.88976, 11.3386;stroke-dashoffset:0;stroke-opacity:0.5"
       d="M 266.94047,473.42857 V 761.49381"
       id="path54"
       sodipodi:nodetypes="cc" />
    <path
       style="fill:none;fill-opacity:1;stroke:#000000;stroke-width:1.88976;stroke-linecap:round;stroke-dasharray:1.88976, 11.3386;stroke-dashoffset:0;stroke-opacity:0.5"
       d="M 255.60189,481.37047 V 743.10903"
       id="path55"
       sodipodi:nodetypes="cc" />
    <path
       style="fill:none;fill-opacity:1;stroke:#000000;stroke-width:1.88976;stroke-linecap:round;stroke-dasharray:1.88976, 11.3386;stroke-dashoffset:0;stroke-opacity:0.5"
       d="M 244.26331,487.34366 V 734.62375"
       id="path56"
       sodipodi:nodetypes="cc" />
    <path
       id="path65"
       style="fill:none;stroke:#000000;stroke-width:1.88976;stroke-linecap:round;stroke-dasharray:1.88976, 5.66928;stroke-dashoffset:0"
       d="M 970.87532,553.182 V 260.31135 H 1328.0407 V 553.182"
       sodipodi:nodetypes="cccc" />
    <text
       xml:space="preserve"
       style="font-size:24px;font-family:Cantarell;-inkscape-font-specification:Cantarell;text-align:start;writing-mode:lr-tb;direction:ltr;text-anchor:start;fill:none;fill-opacity:1;stroke:#000000;stroke-width:1.88976;stroke-linecap:round;stroke-dasharray:none;stroke-opacity:1"
       x="1112.27"
       y="289.50119"
       id="text65"><tspan
         sodipodi:role="line"
         id="tspan65"
         x="1112.27"
         y="289.50119">95 mm</tspan></text>
    <text
       xml:space="preserve"
       style="font-size:36px;font-family:Cantarell;-inkscape-font-specification:Cantarell;text-align:start;writing-mode:lr-tb;direction:ltr;text-anchor:start;fill:#f2f2f2;fill-opacity:1;stroke:#000000;stroke-width:1.88976;stroke-linecap:round;stroke-dasharray:none;stroke-dashoffset:0;stroke-opacity:0.5"
       x="164.04877"
       y="174.75232"
       id="text72"><tspan
         sodipodi:role="line"
         id="tspan72"
         x="164.04877"
         y="174.75232"
         style="font-size:36px;fill:#000000;fill-opacity:1;stroke:none;stroke-dasharray:none">Side View, from bottom</tspan></text>
    <text
       xml:space="preserve"
       style="font-size:36px;font-family:Cantarell;-inkscape-font-specification:Cantarell;text-align:start;writing-mode:lr-tb;direction:ltr;text-anchor:start;fill:#f2f2f2;fill-opacity:1;stroke:#000000;stroke-width:1.88976;stroke-linecap:round;stroke-dasharray:none;stroke-dashoffset:0;stroke-opacity:0.5"
       x="1061.384"
       y="1151.974"
       id="text73"><tspan
         sodipodi:role="line"
         id="tspan73"
         x="1061.384"
         y="1151.974"
         style="font-size:36px;fill:#000000;fill-opacity:1;stroke:none;stroke-dasharray:none">Front View</tspan></text>
    <g
       id="g84"
       transform="translate(300,-100)">
      <path
         id="path77"
         style="fill:#b2b2b2;fill-opacity:1;stroke:#000000;stroke-width:1.88975;stroke-linecap:round;stroke-dasharray:none"
         d="M 865.8359,1757.1031 A 386.45668,386.45668 0 0 1 479.3791,2143.5599 386.45668,386.45668 0 0 1 92.92256,1757.1031 386.45668,386.45668 0 0 1 479.3791,1370.6465 386.45668,386.45668 0 0 1 865.8359,1757.1031 Z" />
      <path
         id="path76"
         style="fill:#a6a6a6;fill-opacity:1;stroke:#000000;stroke-width:1.88975;stroke-linecap:round;stroke-dasharray:none"
         d="m 858.2769,1757.1032 a 378.89763,378.89763 0 0 1 -378.89777,378.8977 378.89763,378.89763 0 0 1 -378.8975,-378.8977 378.89763,378.89763 0 0 1 378.8975,-378.8976 378.89763,378.89763 0 0 1 378.89777,378.8976 z" />
      <path
         id="path75"
         style="fill:#999999;fill-opacity:1;stroke:#000000;stroke-width:1.88976;stroke-linecap:round;stroke-dasharray:none;stroke-opacity:1"
         d="M 852.6076,1757.1032 A 373.22833,373.22833 0 0 1 479.37908,2130.3315 373.22833,373.22833 0 0 1 106.15089,1757.1032 373.22833,373.22833 0 0 1 479.37908,1383.8749 373.22833,373.22833 0 0 1 852.6076,1757.1032 Z" />
      <path
         id="path74"
         style="fill:#8c8c8c;fill-opacity:1;stroke:#000000;stroke-width:1.88975;stroke-linecap:round;stroke-dasharray:none"
         d="M 846.9383,1757.1032 A 367.55906,367.55906 0 0 1 479.37911,2124.6623 367.55906,367.55906 0 0 1 111.82018,1757.1032 367.55906,367.55906 0 0 1 479.37911,1389.5441 367.55906,367.55906 0 0 1 846.9383,1757.1032 Z" />
      <text
         xml:space="preserve"
         style="font-size:36px;font-family:Cantarell;-inkscape-font-specification:Cantarell;text-align:start;writing-mode:lr-tb;direction:ltr;text-anchor:start;fill:#f2f2f2;fill-opacity:1;stroke:#000000;stroke-width:1.88976;stroke-linecap:round;stroke-dasharray:none;stroke-dashoffset:0;stroke-opacity:0.5"
         x="416.52399"
         y="2215.6494"
         id="text74"><tspan
           sodipodi:role="line"
           id="tspan74"
           x="416.52399"
           y="2215.6494"
           style="font-size:36px;fill:#000000;fill-opacity:1;stroke:none;stroke-dasharray:none">Back View</tspan></text>
      <path
         id="path78"
         style="fill:none;stroke:#000000;stroke-width:1.88975;stroke-linecap:round;stroke-dasharray:1.88975, 5.66928;stroke-dashoffset:0"
         d="M 481.26899,2143.5599 H 1154.5706 V 1370.6465 H 481.26899"
         sodipodi:nodetypes="cccc" />
      <text
         xml:space="preserve"
         style="font-size:24px;font-family:Cantarell;-inkscape-font-specification:Cantarell;text-align:start;writing-mode:lr-tb;direction:ltr;text-anchor:start;fill:none;fill-opacity:1;stroke:#000000;stroke-width:1.88976;stroke-linecap:round;stroke-dasharray:none;stroke-opacity:1"
         x="1714.8153"
         y="-1163.509"
         id="text78"
         transform="rotate(90)"><tspan
           sodipodi:role="line"
           id="tspan78"
           x="1714.8153"
           y="-1163.509">205 mm</tspan></text>
      <path
         id="path80"
         style="fill:none;stroke:#000000;stroke-width:1.88975;stroke-linecap:round;stroke-dasharray:1.88975, 5.66928;stroke-dashoffset:0"
         d="M 481.26899,2137.8906 H 1076.5641 V 1376.3158 H 481.26899"
         sodipodi:nodetypes="cccc" />
      <path
         id="path81"
         style="fill:none;stroke:#000000;stroke-width:1.88975;stroke-linecap:round;stroke-dasharray:1.88975, 5.66928;stroke-dashoffset:0"
         d="M 481.26897,2132.2213 H 987.80811 V 1381.9851 H 481.26897"
         sodipodi:nodetypes="cccc" />
      <path
         id="path82"
         style="fill:none;stroke:#000000;stroke-width:1.88975;stroke-linecap:round;stroke-dasharray:1.88975, 5.66928;stroke-dashoffset:0"
         d="m 481.26899,2124.6622 h 409.63614 v -735.118 H 481.26899"
         sodipodi:nodetypes="cccc" />
      <text
         xml:space="preserve"
         style="font-size:24px;font-family:Cantarell;-inkscape-font-specification:Cantarell;text-align:start;writing-mode:lr-tb;direction:ltr;text-anchor:start;fill:none;fill-opacity:1;stroke:#000000;stroke-width:1.88976;stroke-linecap:round;stroke-dasharray:none;stroke-opacity:1"
         x="1714.8153"
         y="-1085.509"
         id="text82"
         transform="rotate(90)"><tspan
           sodipodi:role="line"
           id="tspan82"
           x="1714.8153"
           y="-1085.509">202 mm</tspan></text>
      <text
         xml:space="preserve"
         style="font-size:24px;font-family:Cantarell;-inkscape-font-specification:Cantarell;text-align:start;writing-mode:lr-tb;direction:ltr;text-anchor:start;fill:none;fill-opacity:1;stroke:#000000;stroke-width:1.88976;stroke-linecap:round;stroke-dasharray:none;stroke-opacity:1"
         x="1714.8153"
         y="-999.50897"
         id="text83"
         transform="rotate(90)"><tspan
           sodipodi:role="line"
           id="tspan83"
           x="1714.8153"
           y="-999.50897">199 mm</tspan></text>
      <text
         xml:space="preserve"
         style="font-size:24px;font-family:Cantarell;-inkscape-font-specification:Cantarell;text-align:start;writing-mode:lr-tb;direction:ltr;text-anchor:start;fill:none;fill-opacity:1;stroke:#000000;stroke-width:1.88976;stroke-linecap:round;stroke-dasharray:none;stroke-opacity:1"
         x="1714.8153"
         y="-901.50897"
         id="text84"
         transform="rotate(90)"><tspan
           sodipodi:role="line"
           id="tspan84"
           x="1714.8153"
           y="-901.50897">195 mm</tspan></text>
    </g>
    <g
       id="g3"
       transform="translate(-3.30612)">
      <path
         id="path16"
         style="fill:none;stroke:#000000;stroke-width:1.88976;stroke-linecap:round;stroke-dasharray:1.88976, 1.88976;stroke-dashoffset:0"
         d="m 304.26233,565.93751 h 54.80315 v 92.59843 h -54.80315 z" />
      <g
         id="g1"
         transform="rotate(-90,427.61382,586.38469)">
        <path
           id="path5-2"
           style="fill:none;stroke:#000000;stroke-width:1.88976;stroke-linecap:round"
           d="m 390.32198,508.2252 c -2.83883,0 -5.14016,-2.30133 -5.14016,-5.14016 0,-2.83883 2.30133,-5.14016 5.14016,-5.14016 h 21.69449 c 2.83883,0 5.14016,2.30133 5.14016,5.14016 0,2.83883 -2.30133,5.14016 -5.14016,5.14016 z"
           sodipodi:nodetypes="csccscc" />
        <path
           id="path9-7"
           style="fill:none;stroke:#000000;stroke-width:1.88976;stroke-linecap:round"
           d="m 377.05039,503.08505 a 3.5527579,3.5527578 0 0 1 -3.55276,3.55275 3.5527579,3.5527578 0 0 1 -3.55275,-3.55275 3.5527579,3.5527578 0 0 1 3.55275,-3.55277 3.5527579,3.5527578 0 0 1 3.55276,3.55277 z" />
        <path
           id="path10-2"
           style="fill:none;stroke:#000000;stroke-width:1.88976;stroke-linecap:round"
           d="m 433.57868,503.08505 a 3.5527579,3.5527578 0 0 1 -3.55275,3.55275 3.5527579,3.5527578 0 0 1 -3.55276,-3.55275 3.5527579,3.5527578 0 0 1 3.55276,-3.55277 3.5527579,3.5527578 0 0 1 3.55275,3.55277 z" />
      </g>
    </g>
    <g
       id="g2"
       transform="rotate(180,940.27231,1002.8931)"
       style="fill:#ffffff;fill-opacity:0.5">
      <path
         id="rect11"
         style="fill:#ffffff;fill-opacity:0.5;stroke:#000000;stroke-width:1.88976;stroke-linecap:round"
         d="m 688.94488,1112.9449 h 84.28347 v 20.7874 h -8.31496 c 0,0 -4.35511,2.0401 -6.31496,4 -3.64518,3.6452 -2,13.4652 -2,13.4652 v 45.4652 l -11.33859,24.0378 h -28.34645 l -11.33858,-24.0378 v -47.4652 c 0,0 1.64518,-9.82 -2,-13.4652 -1.95986,-1.9599 -6.31496,-2 -6.31496,-2 h -8.31497 z"
         sodipodi:nodetypes="ccccsccccccsccc" />
      <path
         id="rect16"
         style="fill:#ffffff;fill-opacity:0.5;stroke:#000000;stroke-width:1.88976;stroke-linecap:round"
         d="m 717.72374,1221.7197 h 26.45669 v 24.9449 h -26.45669 z" />
    </g>
    <path
       id="path12"
       style="fill:none;stroke:#000000;stroke-width:1.88977;stroke-linecap:round;stroke-dasharray:1.88977, 5.66929;stroke-dashoffset:0"
       d="M 313.02196,233.33912 H 733.2234 V 991.13436 H 313.02196"
       sodipodi:nodetypes="cccc" />
    <text
       xml:space="preserve"
       style="font-size:24px;font-family:Cantarell;-inkscape-font-specification:Cantarell;text-align:start;writing-mode:lr-tb;direction:ltr;text-anchor:start;fill:none;fill-opacity:1;stroke:#000000;stroke-width:1.88976;stroke-linecap:round;stroke-dasharray:none;stroke-opacity:1"
       x="570.50073"
       y="-660.34473"
       id="text13"
       transform="rotate(90)"><tspan
         sodipodi:role="line"
         id="tspan13"
         x="570.50073"
         y="-660.34473">195 mm</tspan></text>
    <path
       id="path20"
       style="fill:none;stroke:#000000;stroke-width:1.88977;stroke-linecap:round;stroke-dasharray:1.88977, 5.66929;stroke-dashoffset:0"
       d="M 359.53522,256.01625 H 569.94866 V 968.45719 H 359.53522"
       sodipodi:nodetypes="cccc" />
    <text
       xml:space="preserve"
       style="font-size:24px;font-family:Cantarell;-inkscape-font-specification:Cantarell;text-align:start;writing-mode:lr-tb;direction:ltr;text-anchor:start;fill:none;fill-opacity:1;stroke:#000000;stroke-width:1.88976;stroke-linecap:round;stroke-dasharray:none;stroke-opacity:1"
       x="570.50073"
       y="-580.34473"
       id="text24"
       transform="rotate(90)"><tspan
         sodipodi:role="line"
         id="tspan24"
         x="570.50073"
         y="-580.34473">189 mm</tspan></text>
    <path
       id="path2"
       style="fill:none;stroke:#000000;stroke-width:1.88977;stroke-linecap:round;stroke-dasharray:1.88977, 5.66927;stroke-dashoffset:0"
       d="M 287.63577,993.02412 H 58.07737 v -761.5748 h 230.24568"
       sodipodi:nodetypes="cccc" />
    <text
       xml:space="preserve"
       style="font-size:24px;font-family:Cantarell;-inkscape-font-specification:Cantarell;text-align:start;writing-mode:lr-tb;direction:ltr;text-anchor:start;fill:none;fill-opacity:1;stroke:#000000;stroke-width:1.88976;stroke-linecap:round;stroke-dasharray:none;stroke-opacity:1"
       x="-655.94073"
       y="50.431229"
       id="text2"
       transform="rotate(-90)"><tspan
         sodipodi:role="line"
         id="tspan2"
         x="-655.94073"
         y="50.431229">202 mm</tspan></text>
    <path
       id="path25"
       style="fill:none;stroke:#000000;stroke-width:1.88977;stroke-linecap:round;stroke-dasharray:1.88977, 5.66927;stroke-dashoffset:0"
       d="M 294.13406,987.28502 H 85.654534 V 237.0488 H 294.75823"
       sodipodi:nodetypes="cccc" />
    <text
       xml:space="preserve"
       style="font-size:24px;font-family:Cantarell;-inkscape-font-specification:Cantarell;text-align:start;writing-mode:lr-tb;direction:ltr;text-anchor:start;fill:none;fill-opacity:1;stroke:#000000;stroke-width:1.88976;stroke-linecap:round;stroke-dasharray:none;stroke-opacity:1"
       x="-655.94073"
       y="80.431229"
       id="text25"
       transform="rotate(-90)"><tspan
         sodipodi:role="line"
         id="tspan25"
         x="-655.94073"
         y="80.431229">199 mm</tspan></text>
    <path
       id="path27"
       style="fill:none;stroke:#000000;stroke-width:1.88977;stroke-linecap:round;stroke-dasharray:1.88977, 5.66927;stroke-dashoffset:0"
       d="M 294.15556,981.68553 H 111.79598 V 242.7879 h 182.90555"
       sodipodi:nodetypes="cccc" />
    <text
       xml:space="preserve"
       style="font-size:24px;font-family:Cantarell;-inkscape-font-specification:Cantarell;text-align:start;writing-mode:lr-tb;direction:ltr;text-anchor:start;fill:none;fill-opacity:1;stroke:#000000;stroke-width:1.88976;stroke-linecap:round;stroke-dasharray:none;stroke-opacity:1"
       x="-655.94073"
       y="108.43123"
       id="text27"
       transform="rotate(-90)"><tspan
         sodipodi:role="line"
         id="tspan27"
         x="-655.94073"
         y="108.43123">196 mm</tspan></text>
    <path
       id="path28"
       style="fill:none;stroke:#000000;stroke-width:1.88977;stroke-linecap:round;stroke-dasharray:1.88977, 5.66927;stroke-dashoffset:0"
       d="M 294.23577,975.05639 H 138.66604 V 247.49734 h 156.03549"
       sodipodi:nodetypes="cccc" />
    <text
       xml:space="preserve"
       style="font-size:24px;font-family:Cantarell;-inkscape-font-specification:Cantarell;text-align:start;writing-mode:lr-tb;direction:ltr;text-anchor:start;fill:none;fill-opacity:1;stroke:#000000;stroke-width:1.88976;stroke-linecap:round;stroke-dasharray:none;stroke-opacity:1"
       x="-655.94073"
       y="134.43123"
       id="text28"
       transform="rotate(-90)"><tspan
         sodipodi:role="line"
         id="tspan28"
         x="-655.94073"
         y="134.43123">193 mm</tspan></text>
    <path
       id="path38"
       style="fill:none;stroke:#000000;stroke-width:1.88977;stroke-linecap:round;stroke-dasharray:1.88977, 5.66929;stroke-dashoffset:0"
       d="m 337.53524,244.67767 h 316.2505 v 735.1181 h -316.2505"
       sodipodi:nodetypes="cccc" />
    <text
       xml:space="preserve"
       style="font-size:24px;font-family:Cantarell;-inkscape-font-specification:Cantarell;text-align:start;writing-mode:lr-tb;direction:ltr;text-anchor:start;fill:none;fill-opacity:1;stroke:#000000;stroke-width:1.88976;stroke-linecap:round;stroke-dasharray:none;stroke-opacity:1"
       x="570.50073"
       y="-740.34473"
       id="text38"
       transform="rotate(90)"><tspan
         sodipodi:role="line"
         id="tspan38"
         x="570.50073"
         y="-740.34473">201 mm</tspan></text>
    <text
       xml:space="preserve"
       style="font-size:24px;font-family:Cantarell;-inkscape-font-specification:Cantarell;text-align:start;writing-mode:lr-tb;direction:ltr;text-anchor:start;fill:none;fill-opacity:1;stroke:#000000;stroke-width:1.88976;stroke-linecap:round;stroke-dasharray:none;stroke-opacity:1"
       x="570.50073"
       y="-706.34473"
       id="text39"
       transform="rotate(90)"><tspan
         sodipodi:role="line"
         id="tspan39"
         x="570.50073"
         y="-706.34473">198 mm</tspan></text>
    <path
       id="path39"
       style="fill:none;stroke:#000000;stroke-width:1.88977;stroke-linecap:round;stroke-dasharray:1.88977, 5.66929;stroke-dashoffset:0"
       d="M 327.20934,238.26439 H 700.68021 V 984.7211 H 327.20934"
       sodipodi:nodetypes="cccc" />
    <path
       style="fill:none;fill-opacity:1;stroke:#000000;stroke-width:1.88976;stroke-linecap:round;stroke-dasharray:1.88976, 11.3386;stroke-dashoffset:0;stroke-opacity:0.5"
       d="m 264.94047,938.00537 v 47.78155"
       id="path37"
       sodipodi:nodetypes="cc" />
  </g>
</svg>
